<?xml version="1.0" standalone="no"?>
<!DOCTYPE svg PUBLIC "-//W3C//DTD SVG 20010904//EN"
 "http://www.w3.org/TR/2001/REC-SVG-20010904/DTD/svg10.dtd">
<svg version="1.0" xmlns="http://www.w3.org/2000/svg"
 width="1280.000000pt" height="1280.000000pt" viewBox="0 0 1280.000000 1280.000000"
 preserveAspectRatio="xMidYMid meet">
<metadata>
Created by potrace 1.15, written by Peter Selinger 2001-2017
</metadata>
<g transform="translate(0.000000,1280.000000) scale(0.100000,-0.100000)"
fill="#000000" stroke="none">
<path d="M6335 12769 c-20 -18 -47 -50 -60 -73 -61 -104 -141 -373 -194 -651
-34 -184 -51 -283 -51 -307 0 -16 -3 -28 -7 -28 -5 1 -43 108 -86 238 -157
474 -290 731 -404 778 -113 48 -193 -134 -233 -531 -9 -93 -30 -470 -30 -560
-1 -36 -10 -20 -103 165 -169 337 -285 525 -395 642 -74 78 -105 98 -156 98
-95 0 -146 -197 -131 -515 6 -140 38 -494 54 -593 4 -28 7 -52 5 -52 -1 0 -46
64 -100 143 -302 441 -553 707 -667 707 -39 0 -75 -36 -92 -92 -39 -133 0
-425 121 -887 24 -95 43 -175 41 -177 -2 -2 -48 46 -102 107 -145 162 -407
414 -508 490 -199 149 -306 163 -338 45 -35 -130 63 -470 285 -985 27 -61 32
-81 19 -70 -178 153 -408 330 -558 429 -248 163 -388 205 -446 132 -19 -24
-21 -36 -16 -102 10 -152 119 -393 360 -795 49 -82 92 -154 95 -159 3 -5 1 -7
-4 -4 -5 3 -76 46 -159 95 -207 124 -374 215 -491 267 -471 208 -568 77 -274
-369 97 -147 294 -404 428 -558 11 -13 -8 -7 -69 19 -498 217 -856 320 -985
285 -118 -32 -104 -140 45 -338 76 -102 309 -343 481 -499 66 -59 118 -110
116 -112 -2 -2 -71 14 -153 36 -450 121 -774 166 -905 128 -62 -18 -98 -52
-98 -93 0 -115 260 -359 708 -667 78 -53 142 -98 142 -100 0 -1 -42 3 -92 10
-287 40 -648 60 -798 45 -186 -18 -270 -58 -270 -127 0 -51 20 -82 98 -156
117 -110 301 -223 647 -397 194 -97 199 -100 154 -101 -92 0 -456 -21 -554
-30 -328 -33 -502 -91 -536 -177 -46 -120 274 -300 868 -490 84 -26 153 -50
153 -53 0 -3 -76 -17 -168 -33 -575 -95 -922 -225 -922 -347 0 -126 359 -257
978 -357 61 -10 112 -20 112 -23 0 -3 -64 -25 -143 -50 -505 -159 -821 -317
-873 -437 -48 -112 139 -194 531 -232 96 -10 487 -31 570 -31 22 0 -27 -29
-185 -108 -337 -170 -532 -291 -643 -397 -94 -90 -113 -161 -57 -209 93 -78
351 -92 825 -45 110 11 224 23 253 28 28 4 52 7 52 5 0 -1 -64 -46 -142 -100
-439 -299 -708 -553 -708 -667 0 -41 36 -75 98 -93 123 -36 391 -1 821 107
129 32 236 58 238 56 1 -2 -47 -48 -108 -102 -162 -145 -414 -407 -492 -510
-122 -163 -152 -261 -95 -310 98 -85 435 0 1036 259 l83 35 -77 -92 c-208
-252 -401 -521 -469 -658 -45 -88 -68 -172 -61 -214 31 -161 345 -64 931 288
83 49 154 92 159 95 11 6 18 19 -86 -153 -353 -583 -455 -910 -293 -941 117
-22 402 147 813 483 64 53 125 103 135 111 13 11 7 -8 -19 -69 -217 -498 -320
-856 -285 -985 32 -118 140 -104 338 45 103 77 347 313 500 482 58 66 108 117
110 115 3 -2 -13 -71 -35 -153 -121 -449 -167 -773 -128 -905 18 -62 52 -98
93 -98 115 0 377 279 678 723 44 65 81 113 83 108 2 -6 -3 -68 -12 -138 -79
-648 -47 -1003 90 -1003 51 0 82 20 156 98 110 117 226 306 398 649 96 191 99
196 100 153 1 -101 20 -452 30 -555 39 -393 120 -579 233 -531 120 50 277 364
438 879 24 75 46 137 49 137 3 0 16 -66 29 -148 63 -389 155 -724 235 -850
157 -250 317 17 451 756 19 106 35 204 35 217 0 52 16 20 59 -113 192 -606
373 -929 493 -883 119 46 177 322 204 975 l6 158 102 -203 c186 -372 332 -601
443 -693 69 -57 127 -63 167 -16 78 93 92 350 45 825 -11 110 -23 224 -28 253
-4 28 -7 52 -5 52 1 0 47 -64 100 -142 308 -448 552 -708 667 -708 39 0 75 36
92 92 39 132 1 415 -116 867 -27 106 -48 195 -46 197 2 2 52 -50 111 -116 60
-66 176 -186 260 -267 343 -336 533 -421 577 -259 35 130 -63 470 -285 985
-27 61 -32 81 -19 69 154 -134 411 -331 558 -428 312 -205 465 -221 465 -49 0
140 -118 406 -363 814 -49 83 -92 154 -95 159 -6 11 -20 19 163 -91 403 -242
674 -363 812 -363 175 0 159 152 -47 465 -100 150 -161 231 -418 546 l-23 29
83 -36 c484 -209 823 -311 961 -290 142 22 135 133 -22 343 -76 101 -328 363
-490 508 -61 54 -109 100 -108 102 2 2 109 -24 238 -56 430 -108 698 -143 821
-107 62 18 98 52 98 93 0 114 -269 368 -707 667 -79 54 -143 99 -143 100 0 2
24 -1 52 -5 99 -16 453 -48 593 -54 153 -7 320 5 402 30 142 43 151 129 26
249 -112 108 -305 227 -643 398 -159 79 -207 108 -185 108 87 0 475 21 570 31
393 38 579 119 531 232 -47 114 -304 247 -778 404 -130 43 -237 80 -238 83 0
3 51 13 113 23 617 100 977 232 977 357 0 121 -347 252 -922 347 -92 16 -168
30 -168 33 0 3 69 27 153 53 594 190 914 370 868 490 -34 86 -208 144 -536
177 -97 9 -460 30 -554 30 -45 1 -41 4 154 101 349 176 530 287 647 397 78 74
98 105 98 156 0 69 -84 109 -270 127 -150 15 -511 -5 -797 -45 -51 -7 -93 -11
-93 -10 0 2 64 47 142 100 448 308 708 552 708 667 0 41 -36 75 -98 93 -132
39 -456 -7 -905 -128 -82 -22 -151 -38 -153 -35 -2 2 49 52 115 110 169 153
405 397 482 500 149 198 163 306 45 338 -129 35 -487 -68 -985 -285 -61 -26
-80 -32 -69 -19 50 58 217 266 281 350 583 771 338 890 -628 305 -172 -104
-159 -97 -153 -86 3 5 46 77 95 159 353 587 450 900 288 931 -42 7 -126 -16
-214 -61 -158 -79 -482 -315 -734 -533 -13 -12 -8 8 19 69 195 450 303 800
291 942 -15 172 -135 164 -376 -26 -93 -74 -349 -324 -479 -469 -52 -59 -97
-106 -99 -104 -2 2 14 73 36 157 124 472 166 773 126 907 -17 56 -53 92 -92
92 -114 0 -368 -269 -667 -707 -54 -79 -99 -143 -100 -143 -2 0 1 24 5 52 15
95 48 450 54 588 7 151 -6 328 -30 407 -41 136 -127 150 -237 40 -111 -111
-239 -316 -414 -665 l-102 -203 -6 158 c-24 574 -69 842 -160 942 -49 54 -102
45 -172 -31 -106 -115 -230 -394 -365 -820 -24 -76 -46 -138 -49 -138 -3 0
-16 66 -29 148 -59 371 -151 709 -226 838 -34 58 -89 104 -125 104 -19 0 -42
-11 -65 -31z m123 -13 c93 -84 184 -367 265 -821 49 -275 50 -275 32 -325 -46
-130 -243 -900 -317 -1237 -18 -84 -35 -153 -38 -153 -3 0 -20 69 -38 153 -74
337 -255 1046 -313 1225 l-21 62 22 128 c72 426 143 706 217 858 39 79 99 144
133 144 11 0 37 -16 58 -34z m-907 -51 c97 -51 235 -336 389 -803 73 -221 76
-235 69 -290 -48 -342 -97 -789 -130 -1177 -6 -77 -14 -166 -18 -199 l-6 -59
-84 219 c-115 297 -283 706 -393 953 l-91 205 2 165 c3 303 32 614 70 776 47
193 103 255 192 210z m1805 -10 c89 -89 150 -473 155 -980 2 -166 1 -171 -25
-223 -67 -132 -340 -789 -482 -1161 l-59 -155 -7 65 c-4 35 -17 174 -28 309
-30 352 -88 865 -119 1060 -8 52 -5 66 61 270 211 649 386 932 504 815z
m-2664 -194 c111 -70 305 -373 499 -776 l76 -160 7 -305 c7 -339 21 -669 40
-985 7 -115 12 -211 11 -213 -2 -2 -22 32 -45 75 -164 300 -461 804 -626 1063
l-92 145 -21 170 c-32 263 -41 395 -41 590 0 197 10 283 42 357 33 77 74 87
150 39z m3527 19 c26 -13 59 -96 72 -181 13 -86 7 -502 -11 -644 -6 -49 -18
-148 -26 -220 l-16 -130 -92 -145 c-168 -263 -473 -781 -620 -1052 -26 -49
-50 -88 -52 -88 -3 0 -3 19 0 43 17 123 56 1058 56 1330 l0 128 78 162 c43 89
116 230 161 312 210 378 356 536 450 485z m-4369 -327 c67 -41 141 -106 213
-188 96 -108 279 -352 399 -530 l87 -130 36 -234 c42 -274 114 -669 183 -1004
27 -131 44 -232 37 -225 -6 7 -81 103 -165 213 -254 330 -540 684 -697 862
-72 80 -71 78 -148 383 -129 515 -147 821 -51 869 25 12 71 5 106 -16z m5204
16 c45 -21 61 -79 60 -219 -2 -181 -54 -456 -154 -822 -37 -136 -38 -138 -102
-210 -157 -178 -446 -535 -698 -863 -84 -110 -159 -206 -165 -213 -7 -7 14
114 45 270 74 364 141 729 180 988 l30 205 88 130 c280 416 517 686 644 732
42 15 42 15 72 2z m-5955 -458 c109 -56 330 -250 537 -471 240 -256 225 -233
279 -415 26 -88 91 -293 145 -455 90 -273 130 -387 239 -689 l41 -114 -201
194 c-279 269 -446 426 -644 602 -273 245 -251 217 -337 422 -248 590 -314
910 -195 954 26 10 86 -3 136 -28z m6775 -4 c41 -55 19 -230 -60 -472 -41
-127 -167 -448 -223 -568 -36 -79 -43 -87 -187 -213 -182 -161 -476 -434 -744
-693 l-200 -194 41 114 c153 422 286 820 391 1166 l43 142 100 112 c142 160
397 412 494 489 149 118 252 168 306 150 11 -4 28 -19 39 -33z m-3825 -195
c72 -239 210 -783 302 -1184 l43 -187 -28 -128 c-15 -70 -59 -281 -97 -467
-38 -187 -71 -341 -72 -343 -2 -1 -36 91 -76 205 -40 114 -114 317 -163 451
l-90 245 11 130 c28 322 42 474 72 761 5 55 23 204 40 332 16 128 29 237 29
242 0 27 11 6 29 -57z m740 -22 c5 -47 17 -139 25 -205 33 -260 63 -540 85
-810 6 -66 16 -176 22 -245 l11 -125 -90 -245 c-49 -135 -123 -338 -163 -452
-40 -114 -74 -206 -76 -205 -1 2 -34 156 -72 343 -38 186 -82 397 -97 467
l-28 128 43 187 c110 485 313 1264 326 1250 2 -1 8 -41 14 -88z m-1440 -143
c110 -251 272 -641 386 -932 l117 -300 -6 -120 c-3 -66 -12 -219 -20 -340 -8
-121 -18 -284 -22 -362 -3 -79 -9 -143 -13 -143 -3 0 -36 60 -73 133 -116 228
-350 659 -355 653 -3 -2 45 -96 105 -208 60 -112 158 -295 217 -407 l108 -205
-7 -170 c-13 -365 -18 -428 -32 -414 -33 35 -334 474 -334 487 0 9 -4 63 -10
121 -10 113 -32 366 -51 602 -6 81 -9 162 -6 180 2 18 1 40 -3 48 -24 45 -82
1501 -60 1500 3 0 29 -55 59 -123z m2160 -239 c-4 -200 -9 -410 -13 -468 -3
-58 -13 -229 -22 -380 -9 -151 -19 -281 -24 -290 -4 -8 -5 -30 -3 -48 3 -18 0
-99 -6 -180 -19 -236 -41 -489 -51 -602 -6 -58 -10 -112 -10 -121 0 -13 -301
-452 -334 -487 -14 -14 -19 53 -32 409 l-7 175 108 205 c59 112 157 295 217
407 60 112 108 206 105 208 -5 6 -239 -425 -355 -653 -37 -73 -70 -133 -73
-133 -4 0 -9 62 -13 138 -8 163 -23 408 -36 586 -17 223 -17 224 51 402 113
293 286 717 379 929 51 116 97 222 103 238 6 15 14 27 17 27 3 0 2 -163 -1
-362z m-2785 -82 c137 -222 347 -580 499 -851 l106 -190 26 -330 c14 -181 31
-395 39 -475 7 -80 12 -146 10 -148 -1 -2 -44 54 -95 125 -51 70 -179 245
-284 388 -134 182 -194 271 -198 295 -3 19 -24 125 -47 235 -79 382 -211 1123
-209 1175 0 20 12 3 153 -224z m3481 58 c-62 -399 -219 -1218 -244 -1280 -5
-12 -81 -117 -168 -235 -87 -118 -212 -287 -277 -377 -65 -90 -119 -162 -121
-160 -1 2 3 66 11 143 7 77 25 291 39 475 l26 335 106 190 c233 417 638 1093
649 1082 3 -3 -7 -81 -21 -173z m-5872 111 c153 -40 421 -216 777 -512 l125
-103 55 -123 c73 -164 340 -699 488 -977 66 -124 118 -226 117 -228 -2 -2 -86
57 -187 130 -282 206 -510 366 -773 541 -132 87 -248 166 -257 174 -20 18
-179 281 -272 450 -208 379 -268 615 -167 652 35 13 29 13 94 -4z m8224 5 c62
-22 69 -100 22 -247 -51 -160 -205 -460 -396 -768 l-49 -80 -246 -165 c-299
-201 -503 -344 -774 -541 -113 -83 -207 -149 -209 -147 -2 2 49 100 112 218
120 225 455 899 514 1033 33 75 38 81 158 180 355 293 624 471 774 512 65 17
59 17 94 5z m-6493 -444 c188 -225 394 -482 595 -745 l164 -213 58 -262 c32
-143 81 -355 108 -470 l49 -210 -338 345 -338 344 -67 185 c-131 357 -298 858
-402 1205 -5 18 -4 18 11 6 10 -8 82 -91 160 -185z m4762 -82 c-95 -300 -162
-501 -295 -873 l-91 -252 -337 -345 c-185 -189 -338 -344 -339 -344 -1 0 2 15
6 33 36 151 163 705 181 791 l23 110 170 220 c331 432 750 945 762 933 2 -2
-34 -125 -80 -273z m-6996 -141 c168 -59 367 -162 670 -346 l165 -100 135
-206 c159 -242 389 -572 581 -833 76 -104 136 -188 134 -188 -2 0 -98 50 -212
111 -250 132 -806 411 -992 496 l-134 62 -109 132 c-422 510 -595 836 -475
898 36 18 144 6 237 -26z m9374 26 c126 -58 -41 -375 -474 -900 l-107 -130
-134 -62 c-207 -95 -698 -341 -961 -481 -131 -69 -240 -126 -243 -126 -2 0 58
84 134 188 192 261 422 591 581 833 l135 206 165 100 c364 221 519 297 770
377 29 9 109 6 134 -5z m-7786 -140 c216 -193 520 -478 742 -696 l195 -192 59
-158 c32 -87 108 -285 168 -441 60 -156 108 -285 106 -287 -1 -1 -70 50 -152
114 -82 64 -253 195 -380 291 l-230 175 -109 205 c-195 369 -566 1120 -551
1120 2 0 70 -59 152 -131z m6089 59 c-46 -106 -469 -948 -561 -1116 l-78 -142
-236 -180 c-131 -98 -300 -228 -377 -288 -77 -60 -142 -108 -143 -106 -2 1 46
130 106 286 60 156 136 354 168 441 l59 158 190 187 c299 294 881 832 899 832
3 0 -9 -33 -27 -72z m-3049 -640 c29 -139 72 -346 95 -461 l41 -207 -94 -280
c-52 -154 -97 -280 -100 -280 -3 0 -48 126 -100 280 l-94 280 42 213 c75 374
146 707 152 707 3 0 29 -114 58 -252z m-3548 89 c279 -186 594 -408 908 -640
l104 -76 120 -218 c112 -204 267 -480 327 -583 l26 -45 -45 27 c-76 44 -568
320 -690 387 -132 72 -86 18 -435 506 -180 252 -444 638 -505 739 l-23 38 24
-12 c13 -7 98 -63 189 -123z m7169 96 c-60 -99 -325 -487 -504 -738 -349 -488
-303 -434 -435 -506 -122 -67 -614 -343 -690 -387 l-45 -27 26 45 c60 103 215
379 327 583 l120 218 104 76 c392 289 1090 773 1114 773 3 0 -5 -17 -17 -37z
m-3987 -570 l100 -283 -51 -273 c-28 -150 -51 -280 -51 -290 0 -9 -3 -17 -7
-17 -5 0 -68 118 -142 261 l-134 261 7 107 c3 58 11 183 16 276 21 358 30 491
36 525 5 32 11 21 65 -125 33 -88 105 -287 161 -442z m852 452 c4 -60 11 -171
16 -245 5 -74 14 -228 21 -341 l12 -207 -134 -261 c-74 -143 -137 -261 -141
-261 -5 0 -8 8 -8 17 0 10 -23 140 -51 290 l-51 273 120 338 c177 493 196 543
203 524 4 -9 9 -66 13 -127z m-5614 -76 c163 -37 379 -114 739 -265 l93 -39
193 -215 c248 -277 380 -417 750 -798 72 -74 84 -91 60 -82 -266 101 -986 344
-1245 421 -143 42 -146 43 -220 108 -326 287 -590 575 -656 716 -30 63 -31
125 -4 150 41 37 136 39 290 4z m10420 2 c36 -26 39 -86 7 -154 -65 -140 -323
-422 -657 -718 -74 -65 -77 -66 -220 -108 -259 -77 -979 -320 -1245 -421 -24
-9 -12 8 60 82 352 362 476 493 699 743 260 290 226 262 431 348 519 219 829
295 925 228z m-6768 -248 c124 -168 336 -458 396 -543 31 -45 32 -45 61 -340
17 -162 29 -295 28 -296 -1 -1 -94 95 -206 213 l-205 216 -43 186 c-57 241
-163 711 -163 722 0 5 2 9 4 9 2 0 60 -75 128 -167z m2914 -90 c-31 -136 -78
-341 -104 -455 l-48 -206 -171 -179 c-93 -98 -185 -195 -203 -216 -18 -21 -34
-36 -36 -34 -6 5 55 588 63 600 45 76 544 749 550 743 3 -2 -20 -116 -51 -253z
m-5136 -260 c223 -111 488 -246 590 -301 l185 -99 215 -281 c118 -154 250
-326 293 -381 43 -56 75 -101 71 -101 -3 0 -144 54 -313 119 -168 65 -366 141
-439 167 l-133 49 -182 185 c-292 297 -772 815 -823 888 -13 19 -8 18 58 -11
40 -17 255 -122 478 -234z m2356 -692 c39 -160 69 -291 68 -291 -2 0 -108 83
-235 185 l-232 184 -74 188 c-75 192 -246 642 -258 678 -4 11 144 -132 327
-317 l333 -336 71 -291z m3205 693 c-55 -142 -130 -339 -168 -437 l-70 -178
-232 -184 c-127 -102 -233 -185 -235 -185 -1 0 29 131 68 291 l72 291 328 335
c181 183 330 332 332 330 2 -2 -41 -120 -95 -263z m2255 244 c-51 -73 -523
-582 -823 -888 l-181 -185 -134 -49 c-73 -26 -271 -102 -439 -167 -169 -65
-310 -119 -313 -119 -4 0 28 45 71 101 43 55 175 227 293 381 l215 281 185 99
c305 163 1107 563 1138 568 2 0 -4 -10 -12 -22z m-6125 -669 l256 -198 54
-133 c29 -73 79 -196 111 -272 31 -77 56 -141 54 -144 -2 -2 -118 64 -257 145
l-254 149 -64 109 c-76 133 -401 716 -401 722 0 5 186 -136 501 -378z m4230
70 c-93 -167 -197 -353 -232 -414 l-64 -109 -254 -149 c-139 -81 -255 -147
-257 -145 -3 3 175 448 210 524 9 20 100 96 287 240 365 281 473 362 477 359
1 -1 -74 -139 -167 -306z m-2360 -89 l72 -214 -53 -161 c-29 -88 -57 -171 -62
-185 -9 -23 -18 -9 -99 152 l-88 176 20 109 c51 274 81 430 86 447 7 23 20
-11 124 -324z m338 37 l50 -269 -88 -176 c-81 -161 -90 -175 -99 -152 -5 14
-33 97 -62 186 l-53 161 93 278 c67 198 96 272 102 259 4 -11 30 -140 57 -287z
m-5738 242 c135 -13 321 -49 539 -104 320 -81 289 -67 456 -210 192 -164 535
-440 789 -635 110 -84 206 -158 213 -165 7 -7 -93 10 -225 37 -330 68 -726
140 -1004 183 l-233 36 -136 91 c-425 285 -695 525 -731 651 -30 104 80 142
332 116z m11238 -13 c85 -45 76 -104 -39 -244 -81 -100 -359 -321 -640 -510
l-136 -91 -234 -36 c-277 -43 -673 -115 -1003 -183 -132 -27 -232 -44 -225
-37 7 7 103 81 213 165 254 195 597 471 789 635 167 143 136 129 456 210 199
50 407 91 525 105 112 12 255 5 294 -14z m-6169 -326 l88 -175 -34 -189 c-19
-104 -36 -191 -38 -193 -2 -2 -53 68 -114 156 l-110 160 9 228 c5 125 11 257
15 292 l6 64 45 -84 c25 -46 85 -163 133 -259z m1018 7 l9 -249 -110 -159
c-60 -88 -111 -158 -113 -156 -2 2 -19 89 -38 193 l-34 189 131 259 132 258 7
-43 c4 -24 11 -156 16 -292z m-1398 -22 l162 -230 -6 -90 c-3 -49 -6 -136 -7
-192 -1 -57 -5 -103 -9 -103 -13 0 -265 280 -267 298 -7 45 -53 519 -53 541 0
15 4 21 9 16 5 -6 82 -113 171 -240z m1735 -48 l-28 -284 -128 -139 c-70 -76
-132 -140 -138 -142 -8 -3 -11 31 -11 110 0 62 -3 149 -6 193 l-6 80 168 237
c92 131 170 236 172 233 3 -2 -8 -132 -23 -288z m-5335 143 c225 -69 707 -231
980 -330 l225 -81 185 -182 c102 -100 256 -251 343 -336 86 -85 157 -155 157
-156 0 -1 -84 18 -187 42 -104 25 -315 73 -469 107 l-282 63 -218 168 c-364
280 -910 724 -929 756 -5 7 -1 9 11 5 11 -3 93 -28 184 -56z m8975 50 c-19
-31 -603 -505 -954 -774 l-194 -149 -281 -63 c-155 -34 -365 -82 -468 -107
-104 -24 -188 -43 -188 -42 0 1 71 71 157 156 87 85 241 236 343 336 l185 182
225 81 c343 124 1129 385 1173 389 5 1 5 -4 2 -9z m-6925 -318 c113 -64 237
-134 275 -157 l70 -41 148 -253 c82 -139 147 -255 145 -257 -3 -2 -56 18 -119
44 -63 27 -185 77 -272 111 l-158 63 -147 192 c-231 298 -422 551 -422 558 0
7 138 -68 480 -260z m5025 76 c-76 -101 -206 -269 -288 -375 l-148 -191 -157
-63 c-86 -34 -208 -84 -271 -111 -63 -26 -116 -46 -118 -44 -2 2 62 118 144
258 l148 255 104 59 c343 194 717 401 720 398 2 -2 -58 -86 -134 -186z m-3725
-123 c42 -44 84 -90 94 -102 15 -18 23 -64 40 -217 12 -107 19 -193 15 -190
-4 2 -74 58 -155 124 l-149 120 -67 273 c-37 149 -68 278 -68 285 0 12 58 -46
290 -293z m2304 19 c-36 -148 -69 -274 -72 -280 -5 -9 -237 -200 -298 -245
-15 -12 30 374 47 398 28 39 384 410 387 403 1 -4 -27 -128 -64 -276z m-2689
-116 l221 -175 43 -169 c62 -239 59 -221 30 -203 -13 9 -87 53 -164 99 -77 45
-143 86 -148 90 -5 4 -138 324 -225 540 -4 12 -3 13 9 4 8 -6 113 -90 234
-186z m2985 -82 c-61 -148 -112 -271 -115 -274 -11 -11 -330 -200 -333 -197
-2 2 18 88 44 191 l48 187 230 183 c127 101 231 182 233 181 1 -2 -47 -124
-107 -271z m-1495 49 l59 -185 -59 -120 c-33 -66 -62 -120 -65 -120 -3 0 -32
54 -65 120 l-59 120 59 185 c33 101 62 184 65 184 3 0 32 -83 65 -184z m-286
-13 l84 -168 -42 -132 c-23 -73 -43 -132 -46 -132 -2 0 -38 51 -80 113 l-76
113 32 187 c18 103 35 187 38 187 4 0 44 -76 90 -168z m570 -19 l32 -187 -76
-113 c-42 -62 -78 -113 -80 -113 -3 0 -23 59 -46 132 l-42 132 84 168 c46 92
86 168 90 168 3 0 20 -84 38 -187z m-854 -29 l108 -157 -18 -116 c-29 -184
-17 -178 -123 -61 l-92 102 0 73 c0 77 12 315 15 315 2 0 51 -70 110 -156z
m1134 -135 l1 -97 -92 -101 c-107 -117 -94 -123 -123 60 l-18 116 109 159 109
158 6 -99 c4 -55 7 -143 8 -196z m-3566 137 c108 -41 285 -109 394 -152 109
-43 217 -85 241 -94 38 -14 66 -45 228 -248 101 -128 184 -234 184 -236 0 -1
-131 29 -290 68 l-291 71 -337 332 c-185 183 -334 332 -331 332 3 1 94 -32
202 -73z m5745 -259 l-337 -332 -291 -71 c-159 -39 -290 -69 -290 -68 0 2 83
108 184 235 l184 232 74 29 c40 15 208 80 373 144 165 63 327 126 360 139 33
13 65 24 70 24 6 0 -142 -149 -327 -332z m-3512 87 l55 -62 -3 -141 -3 -141
-105 86 c-58 48 -106 87 -107 88 -3 2 -43 356 -43 374 1 16 73 -56 206 -204z
m1594 14 c-12 -100 -22 -183 -23 -184 -1 -1 -43 -35 -92 -75 -50 -41 -98 -80
-108 -88 -16 -13 -17 -5 -17 130 l0 144 127 139 c70 76 129 134 131 128 2 -6
-6 -93 -18 -194z m-2546 1 l199 -117 73 -178 c41 -97 73 -179 71 -181 -2 -2
-84 30 -182 71 l-178 74 -139 239 c-77 131 -144 246 -150 257 -12 21 -8 20
306 -165z m3617 164 c-5 -10 -72 -125 -149 -256 l-139 -239 -178 -74 c-98 -41
-180 -72 -182 -70 -2 2 30 83 71 181 l74 178 253 148 c140 82 255 149 257 149
1 0 -2 -8 -7 -17z m-7386 -64 c77 -5 216 -19 310 -30 l170 -21 145 -92 c198
-126 586 -357 875 -520 293 -165 280 -157 230 -151 -135 16 -1087 55 -1339 55
l-128 0 -192 94 c-567 280 -816 471 -770 591 4 9 23 24 43 34 109 56 280 66
656 40z m11370 0 c180 -25 226 -90 142 -200 -76 -100 -330 -263 -697 -446
l-225 -113 -130 0 c-258 0 -1203 -39 -1340 -55 -50 -6 -63 -14 230 151 289
163 677 394 875 520 l145 92 170 21 c372 45 648 55 830 30z m-6979 -164 c79
-64 146 -119 148 -124 4 -7 36 -244 36 -270 0 -6 -53 22 -117 61 -65 39 -119
72 -120 72 -4 2 -99 376 -95 376 3 0 69 -52 148 -115z m2172 -72 c-28 -104
-50 -188 -51 -189 -1 0 -55 -33 -119 -72 -65 -39 -118 -67 -118 -61 0 6 7 68
15 137 12 90 21 132 33 144 26 26 276 227 283 228 3 0 -16 -84 -43 -187z
m-5768 137 c311 -51 387 -65 825 -152 l360 -71 165 -122 c91 -67 260 -191 375
-274 251 -182 251 -182 204 -176 -49 7 -329 31 -649 55 l-275 22 -225 125
c-350 196 -958 558 -1032 615 -31 24 -29 24 252 -22z m9525 31 c-48 -44 -716
-440 -1170 -694 l-100 -55 -275 -22 c-313 -24 -599 -48 -648 -54 -18 -3 -30
-1 -28 3 3 5 61 48 128 97 68 48 240 174 383 280 l260 191 360 72 c346 68 595
114 905 165 163 27 198 30 185 17z m-4961 -144 l57 -122 -44 -95 -44 -94 -58
87 -58 87 33 108 c36 119 48 152 53 152 2 0 29 -55 61 -123z m240 -10 c21 -65
35 -125 32 -133 -3 -8 -29 -48 -57 -91 l-52 -76 -44 94 -44 94 57 123 c32 67
61 119 64 115 4 -5 24 -61 44 -126z m-476 -18 l73 -111 -31 -99 -31 -99 -57
61 c-90 97 -85 80 -61 228 12 72 25 131 28 131 3 0 39 -50 79 -111z m711 -20
c24 -148 29 -131 -61 -228 l-57 -61 -31 99 -31 99 73 111 c40 61 76 111 79
111 3 0 16 -59 28 -131z m-875 -117 c18 -22 18 -30 6 -110 -7 -48 -15 -93 -19
-99 -6 -12 -20 -3 -131 91 l-32 26 7 136 7 135 72 -77 c39 -43 79 -88 90 -102z
m1104 -42 l1 -55 -77 -62 c-52 -43 -78 -59 -83 -50 -4 6 -12 51 -19 99 -15 99
-23 81 95 211 l70 78 7 -83 c3 -46 6 -108 6 -138z m-2593 90 c138 -56 256
-104 262 -107 7 -3 52 -71 99 -151 48 -81 94 -158 103 -171 19 -29 36 -32
-203 30 l-168 43 -152 190 c-221 279 -222 281 -206 274 8 -3 128 -52 265 -108z
m4173 93 c-8 -10 -91 -115 -185 -233 l-171 -215 -187 -48 c-102 -27 -188 -47
-190 -45 -1 1 42 78 96 169 l99 167 177 72 c98 40 219 90 268 110 103 44 114
47 93 23z m-3481 -97 c158 -94 163 -98 173 -139 6 -23 22 -82 36 -131 13 -50
22 -91 20 -93 -2 -2 -58 20 -126 49 l-123 53 -28 60 c-51 113 -128 306 -121
302 4 -2 80 -48 169 -101z m2647 -28 c-30 -73 -65 -156 -78 -183 l-23 -51
-123 -52 c-68 -29 -124 -51 -126 -49 -5 5 65 260 73 268 7 7 326 199 330 199
1 0 -23 -60 -53 -132z m-2135 -34 l103 -86 -7 -97 c-4 -53 -8 -97 -10 -99 -3
-4 -147 86 -161 101 -12 12 -45 267 -35 267 4 0 53 -39 110 -86z m1603 -41
c-8 -71 -20 -134 -26 -140 -14 -15 -158 -105 -161 -101 -2 2 -6 46 -10 99 l-7
97 103 86 c57 47 107 86 110 86 3 0 -1 -57 -9 -127z m-3936 32 c159 -36 361
-82 450 -103 l161 -38 216 -205 c118 -112 215 -205 213 -206 -4 -5 -589 58
-600 64 -46 28 -746 542 -746 549 0 7 15 5 306 -61z m6474 61 c0 -6 -698 -520
-746 -549 -11 -6 -596 -69 -600 -64 -2 1 95 94 213 206 l216 205 166 39 c289
68 715 165 734 166 9 1 17 -1 17 -3z m-3342 -102 l43 -86 -42 -64 c-23 -35
-45 -64 -49 -64 -4 0 -26 29 -49 64 l-42 64 43 86 c23 47 45 86 48 86 3 0 25
-39 48 -86z m-171 -61 c17 -33 17 -33 -18 -104 l-35 -71 -52 61 -53 60 27 88
c14 48 29 92 31 96 5 9 69 -75 100 -130z m377 34 l27 -88 -53 -60 -52 -60 -33
63 c-17 35 -32 70 -33 78 0 21 103 171 111 162 4 -4 19 -47 33 -95z m-615 -18
l64 -70 -17 -62 c-26 -97 -26 -97 -95 -41 -38 30 -59 55 -56 64 2 8 9 52 16
98 6 45 14 82 18 82 4 0 35 -32 70 -71z m810 -11 c7 -46 14 -90 16 -98 3 -9
-18 -34 -56 -64 -69 -56 -69 -56 -95 41 l-17 62 64 70 c35 39 66 71 70 71 4 0
12 -37 18 -82z m-1804 -77 l60 -28 53 -123 c29 -68 51 -124 49 -126 -2 -2 -43
7 -93 20 -49 14 -108 30 -131 36 -45 11 -29 -12 -225 317 l-19 32 123 -50 c68
-28 150 -64 183 -78z m396 63 c73 -44 111 -74 114 -88 6 -29 23 -180 20 -184
-4 -5 -170 69 -182 81 -9 10 -73 229 -73 251 0 12 16 4 121 -60z m2039 60 c0
-22 -64 -241 -73 -250 -13 -13 -178 -87 -182 -82 -5 6 21 197 28 204 12 12
212 134 220 134 4 0 7 -2 7 -6z m562 -26 c-11 -18 -56 -95 -101 -170 -78 -132
-83 -138 -124 -148 -23 -6 -82 -22 -131 -36 -50 -13 -91 -22 -93 -20 -2 2 20
58 49 125 32 77 59 126 72 133 19 11 336 146 344 147 2 1 -5 -14 -16 -31z
m-2128 -136 c4 -7 -8 -94 -19 -139 -5 -22 -7 -21 -70 19 l-65 40 0 105 0 104
75 -61 c41 -33 76 -64 79 -68z m1126 24 l0 -105 -59 -35 c-32 -20 -63 -36 -69
-36 -5 0 -13 26 -16 58 -4 31 -9 65 -12 74 -3 11 19 36 73 82 43 36 79 65 81
66 1 0 2 -47 2 -104z m-690 -21 l42 -65 -32 -50 c-18 -27 -36 -50 -40 -50 -5
0 -25 21 -46 46 l-37 45 33 70 c19 38 35 69 36 69 1 0 21 -29 44 -65z m176
-119 c-20 -25 -41 -46 -46 -46 -4 0 -22 23 -40 50 l-32 50 43 66 43 66 35 -70
35 -71 -38 -45z m-2264 106 l268 -67 125 -154 c69 -85 125 -155 125 -156 0 0
-88 9 -195 21 -121 13 -201 27 -212 35 -10 8 -103 95 -208 193 -104 99 -194
183 -199 188 -20 16 34 6 296 -60z m4470 -34 c-147 -142 -273 -260 -299 -282
-18 -15 -64 -23 -218 -40 -107 -12 -195 -21 -195 -21 0 1 56 71 125 156 l125
154 263 66 c144 37 272 67 284 68 16 1 -5 -25 -85 -101z m-2532 -9 c19 -25 19
-26 -8 -83 l-27 -57 -49 43 -48 43 22 74 22 73 35 -33 c19 -19 43 -46 53 -60z
m511 19 l21 -73 -48 -42 -49 -43 -27 52 c-15 29 -27 56 -28 60 0 7 99 118 106
118 2 0 13 -33 25 -72z m-1051 3 l75 -48 3 -83 c2 -64 0 -81 -10 -77 -7 3 -41
17 -74 32 l-62 27 -11 87 c-13 103 -13 111 -3 110 4 0 41 -22 82 -48z m1570
37 c0 -6 -5 -51 -11 -99 l-11 -87 -62 -27 c-33 -15 -67 -29 -74 -32 -10 -4
-12 13 -10 77 l3 83 75 48 c81 51 90 55 90 37z m-1965 -59 l110 -48 27 -97
c15 -54 27 -99 25 -100 -2 -2 -47 9 -101 24 l-97 27 -48 110 c-26 61 -50 118
-54 127 -7 20 -14 22 138 -43z m2408 44 c-4 -10 -28 -67 -54 -128 l-48 -110
-97 -27 c-54 -15 -99 -26 -101 -24 -2 1 10 47 25 101 l27 98 125 53 c69 29
126 53 127 54 1 0 -1 -8 -4 -17z m-1635 -95 c15 -18 -16 -131 -34 -124 -7 3
-31 17 -55 31 l-42 27 7 56 c13 109 11 108 66 62 26 -22 52 -45 58 -52z m848
-6 l6 -60 -42 -27 c-65 -41 -65 -41 -83 25 l-17 61 32 27 c18 15 44 37 58 49
24 20 25 20 32 3 4 -10 10 -46 14 -78z m-1951 -74 c1 -2 34 -57 74 -122 l73
-119 -54 7 c-29 4 -91 12 -137 17 -46 5 -87 12 -91 14 -10 6 -240 291 -240
297 0 4 371 -89 375 -94z m1503 55 c31 -47 31 -47 12 -73 -11 -15 -26 -33 -35
-40 -17 -14 -33 -5 -65 40 -19 26 -19 26 12 73 17 26 34 47 38 47 4 0 21 -21
38 -47z m1687 -108 c-64 -80 -121 -147 -125 -150 -4 -2 -45 -9 -91 -14 -46 -5
-108 -13 -137 -17 l-54 -7 73 119 c40 65 73 120 74 122 3 4 370 98 374 95 2
-1 -49 -68 -114 -148z m-2241 16 c-12 -82 -11 -82 -76 -53 l-58 25 0 62 c0 98
2 100 76 53 l65 -41 -7 -46z m392 84 l37 -45 -27 -40 c-14 -22 -30 -40 -34
-40 -4 1 -22 14 -41 30 l-34 29 23 55 c12 31 26 56 30 56 5 0 25 -20 46 -45z
m324 -11 l23 -55 -34 -29 c-19 -16 -37 -29 -41 -30 -4 0 -20 18 -34 40 -23 34
-25 42 -13 57 25 34 63 73 70 73 4 0 17 -25 29 -56z m449 -40 l1 -61 -57 -25
c-66 -29 -65 -29 -77 53 l-7 46 63 40 c73 46 76 44 77 -53z m-1547 33 c85 -35
77 -22 93 -148 l6 -46 -73 19 c-40 11 -76 23 -80 27 -3 3 -18 48 -32 99 -22
83 -23 93 -8 88 9 -4 52 -21 94 -39z m1881 -49 c-13 -51 -28 -96 -31 -99 -4
-4 -40 -16 -80 -27 l-73 -20 5 37 c3 20 8 56 11 81 l6 45 87 37 c48 20 90 37
94 38 4 0 -5 -42 -19 -92z m-1243 -41 c-10 -23 -23 -43 -29 -45 -12 -4 -81 40
-81 51 0 5 7 33 16 63 l16 55 48 -41 49 -41 -19 -42z m614 69 c9 -30 16 -58
16 -63 0 -11 -69 -55 -81 -51 -6 2 -19 22 -29 45 l-19 42 47 41 c26 22 48 40
49 40 1 0 9 -24 17 -54z m-5454 -7 c190 -90 763 -328 1117 -465 112 -42 202
-79 200 -80 -1 -2 -113 -12 -247 -24 -429 -36 -952 -94 -1180 -130 -52 -8 -66
-5 -290 70 -570 189 -820 325 -820 445 0 74 149 134 416 169 131 17 411 36
589 39 72 2 135 4 140 5 6 1 39 -12 75 -29z m820 7 c58 -3 229 -13 380 -22
l275 -16 180 -98 c99 -54 284 -152 410 -219 285 -149 271 -140 215 -141 -59 0
-329 -16 -610 -35 -124 -8 -245 -16 -270 -17 -48 -2 -182 47 -655 237 -349
141 -755 317 -755 327 0 5 713 -9 830 -16z m9384 14 c-30 -30 -734 -324 -1234
-516 -141 -54 -111 -52 -435 -29 -115 8 -307 19 -425 25 -118 6 -219 13 -225
14 -5 2 28 22 75 46 102 51 340 177 585 311 l180 97 275 16 c151 9 322 19 380
22 58 4 267 10 465 14 198 3 362 7 365 8 2 1 0 -2 -6 -8z m516 -11 c736 -45
897 -188 463 -412 -125 -64 -312 -137 -583 -227 -224 -75 -238 -78 -290 -70
-228 36 -751 94 -1180 130 -134 12 -246 22 -247 24 -2 1 88 38 200 80 348 134
922 373 1112 463 58 27 64 28 205 26 80 -2 224 -8 320 -14z m-6023 -67 c9 -6
9 -19 -3 -59 l-15 -52 -37 17 c-59 26 -60 27 -51 79 4 27 8 54 8 61 1 9 15 5
44 -13 23 -14 47 -29 54 -33z m911 -5 c10 -63 10 -62 -50 -89 l-37 -17 -15 52
c-8 28 -14 52 -13 53 13 10 102 62 104 61 1 -2 6 -28 11 -60z m-1820 22 c64
-17 122 -36 129 -42 12 -12 86 -178 81 -182 -4 -3 -155 14 -184 20 -13 3 -44
43 -87 114 -37 60 -67 112 -67 115 0 9 1 9 128 -25z m1282 -19 l19 -27 -29
-34 -29 -34 -32 32 -32 32 27 41 c30 45 37 44 76 -10z m137 9 l26 -40 -30 -31
c-33 -33 -42 -32 -72 11 l-20 28 30 36 c17 21 32 37 35 37 2 0 16 -18 31 -41z
m1333 36 c0 -6 -121 -207 -132 -220 -7 -8 -198 -36 -206 -30 -5 4 69 170 81
182 7 6 62 25 122 41 113 31 135 35 135 27z m-2165 -32 l65 -27 0 -63 c0 -39
-4 -63 -11 -63 -6 0 -35 7 -63 15 l-53 15 -9 75 c-5 41 -6 75 -2 75 4 0 37
-12 73 -27z m1521 -48 l-9 -75 -53 -15 c-28 -8 -57 -15 -63 -15 -7 0 -11 24
-11 63 l0 63 63 27 c34 14 67 26 72 26 7 1 8 -23 1 -74z m-954 -9 c-2 -5 -12
-22 -23 -38 -20 -28 -21 -28 -51 -11 -41 24 -43 34 -18 83 l21 41 37 -32 c20
-18 36 -37 34 -43z m408 33 c25 -48 23 -58 -18 -82 l-31 -18 -25 38 -25 37 37
32 c20 18 38 33 39 34 2 0 12 -18 23 -41z m-3625 22 c61 -6 171 -15 245 -21
277 -22 475 -41 488 -45 8 -3 119 -80 249 -171 129 -91 236 -164 239 -161 2 2
-97 75 -221 163 -125 87 -221 160 -215 162 6 2 136 -8 288 -23 l277 -28 60
-53 c33 -29 101 -91 150 -138 l90 -85 -120 -2 c-171 -2 -330 -7 -565 -19 -113
-5 -237 -11 -276 -11 l-70 -2 -195 103 c-237 125 -622 332 -628 336 -8 7 93 4
204 -5z m6954 5 c-6 -4 -391 -211 -628 -336 l-195 -103 -70 2 c-39 0 -163 6
-276 11 -235 12 -394 17 -565 19 l-120 2 90 85 c50 47 117 109 150 138 l60 53
277 28 c152 15 282 25 288 23 6 -2 -90 -75 -215 -162 -124 -87 -224 -161 -221
-163 2 -3 114 72 247 166 133 94 250 171 259 171 9 0 86 6 171 14 85 8 217 20
294 26 77 6 181 15 230 19 97 9 231 13 224 7z m-4548 -94 c4 -4 16 -40 27 -80
l21 -73 -47 6 c-127 16 -114 8 -149 93 -18 42 -35 85 -39 94 -5 15 5 14 88 -8
51 -14 96 -29 99 -32z m642 33 l37 -26 -20 -39 -20 -40 -40 20 c-38 19 -39 21
-29 52 6 18 12 39 15 46 5 17 15 15 57 -13z m723 -23 l12 -43 -39 -19 -39 -20
-20 40 -20 39 37 26 c21 14 42 24 47 22 5 -2 15 -22 22 -45z m727 -50 c-42
-101 -27 -91 -155 -107 l-47 -6 21 73 c11 40 23 76 27 80 7 7 184 57 189 53 2
-2 -14 -44 -35 -93z m-1702 67 l49 -21 -6 -42 c-10 -62 -13 -64 -66 -49 l-48
14 0 60 c0 35 4 59 11 59 6 0 32 -10 60 -21z m1229 -38 l0 -60 -47 -14 c-54
-15 -57 -13 -67 49 l-6 42 48 20 c70 31 72 30 72 -37z m-616 16 l20 -27 -27
-27 -26 -27 -26 24 c-31 29 -31 37 -3 67 26 28 35 26 62 -10z m-140 -1 l28
-24 -22 -30 c-24 -32 -31 -32 -72 0 -17 12 -16 15 3 46 12 17 24 32 27 32 4
-1 20 -11 36 -24z m275 -8 c19 -31 20 -34 3 -46 -41 -32 -48 -32 -72 0 l-22
30 28 24 c16 13 32 23 36 24 3 0 15 -15 27 -32z m-1027 -22 c62 -18 61 -16 72
-103 l6 -41 -43 5 c-85 9 -85 9 -103 71 -8 31 -18 65 -21 75 -4 15 -1 18 14
14 10 -3 44 -13 75 -21z m388 4 c44 -23 45 -24 29 -69 -12 -35 -11 -35 -60
-21 l-36 10 8 43 c4 23 8 45 9 50 0 11 7 9 50 -13z m231 -1 c29 -20 29 -21 12
-50 -10 -16 -21 -29 -26 -29 -7 0 -46 18 -55 26 -7 5 22 74 31 74 5 0 22 -9
38 -21z m538 -15 c7 -19 11 -37 9 -38 -9 -8 -48 -26 -55 -26 -5 0 -16 13 -26
29 -17 29 -17 30 10 50 39 28 47 26 62 -15z m225 14 c8 -32 7 -76 -1 -81 -5
-3 -22 -8 -39 -11 -29 -7 -33 -4 -43 25 -16 45 -15 46 27 68 47 25 48 25 56
-1z m422 5 c-2 -10 -12 -44 -20 -75 -18 -62 -18 -62 -104 -72 -41 -4 -44 -3
-38 17 3 12 6 36 6 52 0 45 12 55 81 75 81 23 81 23 75 3z m-977 -79 c-27 -29
-27 -29 -59 -4 l-25 19 24 25 24 25 29 -20 29 -21 -22 -24z m141 15 c0 -4 -12
-14 -26 -24 -25 -16 -27 -16 -51 7 l-24 23 28 22 27 22 23 -21 c13 -12 23 -25
23 -29z m-1891 20 c97 -11 176 -21 177 -22 1 -1 40 -49 88 -107 l86 -105 -137
-5 -138 -5 -84 75 c-179 161 -207 189 -187 190 10 0 98 -9 195 -21z m3715 -37
c-34 -31 -99 -91 -145 -132 l-84 -75 -138 5 -137 5 86 105 c47 58 93 107 102
109 31 7 308 39 342 39 l35 1 -61 -57z m-2649 35 c55 -15 61 -26 50 -84 l-6
-36 -46 7 c-26 3 -48 7 -49 9 -9 8 -16 117 -8 117 5 0 31 -6 59 -13z m346 -3
c24 -12 29 -19 23 -37 -12 -40 -22 -46 -58 -35 -33 10 -33 11 -23 49 11 44 15
46 58 23z m209 -3 c24 -19 24 -20 6 -40 -22 -24 -35 -26 -60 -8 -18 13 -18 15
-1 40 21 32 23 32 55 8z m375 -8 c17 -25 17 -27 -1 -40 -25 -18 -38 -16 -60 8
-18 20 -18 21 6 40 32 24 34 24 55 -8z m212 -12 c10 -38 10 -39 -23 -49 -36
-11 -46 -5 -58 35 -6 17 -1 25 21 37 42 23 50 20 60 -23z m349 -18 c-4 -31 -8
-58 -10 -60 -2 -2 -26 -6 -53 -10 l-50 -5 1 53 1 53 45 12 c75 20 74 21 66
-43z m-2210 7 l121 -13 52 -85 c29 -46 51 -86 49 -87 -2 -2 -46 -7 -99 -11
l-97 -7 -83 102 c-87 105 -102 128 -78 119 8 -3 68 -11 135 -18z m876 -41 c-4
-52 -7 -55 -51 -51 l-41 4 0 53 0 53 48 -12 c45 -12 47 -14 44 -47z m1208 7
l0 -54 -41 -4 c-44 -4 -47 -1 -51 51 -3 33 -1 35 42 47 25 7 46 12 48 13 1 1
2 -23 2 -53z m928 44 c-1 -5 -41 -55 -87 -111 l-83 -102 -97 7 c-53 4 -97 9
-99 11 -2 1 20 41 49 87 l52 85 126 15 c69 8 130 16 134 17 5 0 7 -3 5 -9z
m-1863 -12 c30 -13 31 -19 7 -48 -15 -18 -21 -20 -45 -11 -31 12 -31 12 -15
46 13 28 17 30 53 13z m313 -6 l23 -18 -25 -14 c-22 -11 -30 -11 -52 0 l-25
14 23 18 c13 10 25 18 28 18 3 0 15 -8 28 -18z m311 -9 c13 -28 8 -37 -26 -47
-17 -5 -26 -1 -39 19 -9 14 -15 27 -13 29 12 9 45 25 55 26 6 0 16 -12 23 -27z
m-434 5 c24 -11 24 -12 9 -30 -19 -20 -41 -23 -64 -8 -12 7 -12 12 4 29 22 25
19 24 51 9z m241 -9 c16 -17 16 -22 4 -29 -22 -14 -41 -12 -62 7 -18 16 -18
17 4 30 31 16 32 16 54 -8z m-606 -25 c0 -7 -4 -24 -10 -38 -8 -22 -13 -25
-42 -19 -18 3 -34 7 -36 8 -1 1 0 20 4 42 l6 40 39 -10 c21 -5 39 -15 39 -23z
m1008 -48 c-2 -2 -18 -6 -36 -9 -29 -6 -34 -3 -42 19 -16 42 -12 52 28 61 l37
9 8 -39 c5 -21 7 -40 5 -41z m-1727 63 l87 -11 27 -62 c15 -33 29 -67 32 -74
4 -10 -13 -12 -77 -10 l-83 3 -48 78 c-27 43 -49 80 -49 83 0 6 15 5 111 -7z
m964 -1 c30 -13 31 -20 7 -41 -18 -16 -62 -13 -62 4 0 9 22 49 27 49 1 0 14
-5 28 -12z m471 -5 c19 -26 17 -40 -8 -46 -14 -4 -29 0 -40 10 -23 21 -23 28
5 41 29 14 28 14 43 -5z m1034 13 c0 -3 -22 -40 -49 -83 l-48 -78 -82 -3 c-44
-2 -81 0 -81 3 0 2 14 36 31 74 l31 69 71 10 c84 11 127 14 127 8z m-2195 -92
c8 -28 15 -57 15 -63 0 -7 -24 -11 -62 -11 l-63 0 -28 68 c-15 37 -27 69 -27
72 0 3 34 1 75 -4 l75 -9 15 -53z m503 65 c31 -11 31 -11 17 -40 -17 -31 -18
-32 -52 -23 -26 7 -27 12 -13 48 11 30 8 29 48 15z m370 -1 c8 -8 9 -15 1 -25
-14 -16 3 -17 19 -1 9 9 15 9 24 0 17 -17 33 -15 19 2 -16 19 14 44 37 30 29
-19 23 -31 -23 -48 -43 -17 -47 -17 -90 0 -48 18 -52 23 -33 42 15 15 31 15
46 0z m485 -22 c11 -32 10 -32 -25 -41 -23 -6 -29 -2 -42 23 -15 30 -15 31 12
40 36 14 44 11 55 -22z m591 -46 l-29 -70 -62 0 c-39 0 -63 4 -63 11 0 6 7 35
15 64 l16 52 72 9 c40 5 74 8 76 7 2 -1 -9 -34 -25 -73z m-1193 59 c19 -10 20
-12 4 -29 -9 -10 -24 -16 -36 -13 -22 6 -23 8 -9 34 12 22 15 23 41 8z m339
-8 c14 -26 13 -28 -9 -34 -12 -3 -27 3 -36 13 -15 17 -15 19 2 29 25 15 31 14
43 -8z m-504 -35 c-9 -13 -23 -20 -37 -18 -30 3 -31 5 -20 35 9 24 13 25 41
15 29 -10 30 -12 16 -32z m694 -7 c0 -4 -10 -9 -22 -13 -17 -4 -28 0 -42 16
-18 22 -18 23 10 34 26 11 30 10 41 -9 7 -12 12 -25 13 -28z m-1163 27 c2 -2
6 -27 10 -55 l6 -52 -53 3 -54 3 -13 50 c-7 28 -13 54 -13 59 0 8 109 0 117
-8z m1683 6 c0 -5 -7 -32 -15 -60 l-16 -52 -49 0 c-46 0 -50 2 -50 24 0 58 12
85 39 89 49 8 91 7 91 -1z m-1572 -56 c4 -43 -7 -56 -50 -56 -17 0 -29 6 -32
18 -5 16 -9 70 -7 83 1 3 20 3 44 0 41 -6 42 -7 45 -45z m581 45 c17 -11 6
-31 -18 -31 -25 0 -33 11 -20 27 13 15 19 16 38 4z m220 -4 c13 -16 5 -27 -20
-27 -24 0 -35 20 -18 31 19 12 25 11 38 -4z m634 -24 c-11 -69 -13 -73 -41
-73 -43 0 -54 13 -50 56 3 37 5 39 43 44 51 7 53 6 48 -27z m-1010 21 c3 -4 2
-15 -4 -26 -7 -14 -16 -17 -32 -12 -30 9 -32 11 -17 29 13 15 42 20 53 9z
m547 -9 c15 -18 13 -20 -17 -29 -16 -5 -25 -2 -32 12 -6 11 -7 22 -4 26 11 11
40 6 53 -9z m-892 -1 c19 -5 23 -12 20 -38 -3 -28 -7 -31 -40 -34 l-38 -3 0
40 c0 43 8 48 58 35z m409 -18 c-2 -6 -19 -12 -38 -14 -33 -4 -33 -3 -16 16
19 21 61 19 54 -2z m413 -14 c-26 -4 -50 4 -50 17 0 17 34 18 54 2 18 -15 18
-16 -4 -19z m420 -3 l0 -40 -37 3 c-35 3 -38 6 -41 35 -3 33 5 39 56 42 19 1
22 -4 22 -40z m-1132 16 c1 -1 -2 -14 -7 -29 -8 -20 -17 -26 -41 -26 -26 0
-30 3 -30 28 0 16 3 31 6 35 5 5 63 -1 72 -8z m456 6 c8 -12 -20 -22 -39 -15
-19 8 -9 24 15 24 10 0 21 -4 24 -9z m100 0 c8 -12 -20 -22 -39 -15 -19 8 -9
24 15 24 10 0 21 -4 24 -9z m484 -29 c3 -30 1 -32 -28 -32 -24 0 -33 6 -40 26
-13 34 -14 32 18 37 42 6 47 3 50 -31z m-970 12 c12 -9 -23 -44 -43 -44 -27 0
-28 3 -19 37 5 19 11 22 33 16 14 -3 27 -7 29 -9z m310 -1 c30 -7 28 -23 -4
-23 -14 0 -23 4 -19 9 3 6 -10 8 -32 5 -36 -5 -37 -5 -18 11 11 8 26 13 35 9
8 -4 25 -9 38 -11z m278 1 c18 -15 17 -15 -19 -10 -22 3 -35 1 -32 -5 4 -5 -5
-9 -19 -9 -47 0 -22 22 45 39 3 0 14 -6 25 -15z m298 -6 c9 -35 8 -38 -19 -38
-14 0 -29 8 -35 19 -14 27 -13 29 13 34 12 2 25 5 28 6 4 0 9 -9 13 -21z
m-825 -19 c-9 -17 -59 -28 -59 -13 0 23 22 41 44 37 21 -4 24 -8 15 -24z m366
21 c3 -5 -3 -10 -15 -10 -12 0 -18 5 -15 10 3 6 10 10 15 10 5 0 12 -4 15 -10z
m395 -32 c0 -17 -50 -7 -60 11 -8 16 -6 20 13 23 20 4 47 -15 47 -34z m-706
26 c24 -9 0 -34 -32 -34 -24 0 -25 1 -7 20 21 23 18 22 39 14z m631 -14 c18
-19 17 -20 -7 -20 -30 0 -57 25 -36 33 21 9 24 8 43 -13z m-567 -2 c-3 -7 -14
-14 -26 -16 -16 -3 -20 1 -16 12 7 19 48 22 42 4z m197 2 c-3 -5 -13 -10 -21
-10 -8 0 -12 5 -9 10 3 6 13 10 21 10 8 0 12 -4 9 -10z m100 0 c3 -5 -1 -10
-9 -10 -8 0 -18 5 -21 10 -3 6 1 10 9 10 8 0 18 -4 21 -10z m209 -6 c4 -11 0
-15 -16 -12 -12 2 -23 9 -26 16 -6 18 35 15 42 -4z m-449 -4 c-3 -5 -15 -10
-26 -10 -11 0 -17 5 -14 10 3 6 15 10 26 10 11 0 17 -4 14 -10z m390 0 c3 -5
-3 -10 -14 -10 -11 0 -23 5 -26 10 -3 6 3 10 14 10 11 0 23 -4 26 -10z m-348
-6 c-3 -3 -12 -4 -19 -1 -8 3 -5 6 6 6 11 1 17 -2 13 -5z m290 0 c-3 -3 -12
-4 -19 -1 -8 3 -5 6 6 6 11 1 17 -2 13 -5z m-457 -22 c11 7 22 9 26 5 11 -11
-3 -21 -34 -23 -15 -2 -38 -6 -51 -10 -18 -5 -22 -4 -17 5 10 16 50 31 54 20
2 -4 12 -3 22 3z m70 -2 c0 -5 -8 -10 -17 -10 -15 0 -16 2 -3 10 19 12 20 12
20 0z m430 -26 c99 -31 181 -81 261 -161 80 -79 131 -161 165 -268 21 -66 25
-99 25 -195 0 -196 -55 -326 -195 -465 -136 -134 -264 -187 -456 -187 -192 0
-320 53 -456 187 -140 139 -195 269 -195 465 0 134 25 233 86 335 45 76 149
181 220 224 162 99 363 122 545 65z m60 20 c0 -2 -7 -4 -15 -4 -8 0 -15 4 -15
10 0 5 7 7 15 4 8 -4 15 -8 15 -10z m48 4 c8 -8 12 -9 12 -1 0 15 36 5 52 -15
11 -13 10 -15 -12 -8 -14 4 -36 9 -50 10 -38 4 -40 5 -40 16 0 14 23 13 38 -2z
m-1460 -72 c45 -72 47 -69 -38 -81 -25 -4 -52 -9 -62 -11 -11 -3 -36 19 -79
71 -34 41 -64 73 -67 71 -2 -3 21 -35 52 -73 38 -46 52 -69 43 -74 -6 -4 -51
-12 -99 -19 l-87 -13 -33 28 c-18 15 -63 56 -100 90 l-68 62 73 7 c39 3 146 6
236 6 90 0 166 2 169 5 9 8 19 -3 60 -69z m154 17 c29 -66 29 -65 -53 -77
l-46 -7 -41 65 c-22 35 -38 67 -34 70 3 3 38 6 77 6 l72 0 25 -57z m131 10 c9
-33 10 -50 3 -54 -12 -7 -96 -19 -96 -14 0 1 -11 28 -25 59 l-25 56 65 0 64 0
14 -47z m107 12 c0 -19 0 -38 0 -42 1 -9 -70 -26 -77 -19 -2 2 -11 25 -18 50
l-14 46 54 0 55 0 0 -35z m88 -2 c-3 -34 -6 -38 -34 -41 -26 -3 -33 1 -38 20
-13 50 -8 58 35 58 l40 0 -3 -37z m87 10 c-4 -16 -7 -29 -8 -30 -1 -1 -14 -4
-30 -8 -26 -7 -27 -5 -27 29 0 35 1 36 36 36 34 0 36 -1 29 -27z m75 7 c0 -13
-10 -24 -26 -30 -35 -14 -34 -14 -34 20 0 27 3 30 30 30 23 0 30 -4 30 -20z
m70 13 c0 -16 -16 -30 -37 -37 -18 -6 -23 -3 -23 12 0 10 3 22 7 25 9 9 53 9
53 0z m54 -8 c-6 -14 -42 -31 -50 -22 -11 11 11 37 32 37 16 0 22 -4 18 -15z
m820 -1 c8 -22 2 -27 -22 -20 -31 10 -36 36 -8 36 13 0 27 -7 30 -16z m64 -12
c3 -21 1 -23 -20 -17 -43 14 -52 48 -10 43 20 -2 28 -9 30 -26z m72 -2 c0 -34
1 -34 -34 -20 -38 14 -35 50 4 50 27 0 30 -3 30 -30z m80 -6 c0 -34 -1 -36
-27 -29 -16 4 -29 7 -30 8 -1 1 -4 14 -8 30 -7 26 -5 27 29 27 35 0 36 -1 36
-36z m100 19 c-1 -48 -12 -64 -44 -61 -28 3 -31 7 -34 41 l-3 37 40 0 c32 0
41 -4 41 -17z m105 -29 c-7 -25 -16 -48 -18 -50 -7 -7 -82 11 -79 19 1 4 2 23
2 42 l0 35 55 0 54 0 -14 -46z m130 -10 c-14 -31 -25 -58 -25 -59 0 -5 -84 7
-96 14 -7 4 -6 21 3 54 l14 47 64 0 65 0 -25 -56z m187 50 c4 -3 -12 -35 -34
-70 l-41 -65 -46 7 c-82 12 -82 11 -53 77 l25 57 72 0 c39 0 74 -3 77 -6z
m210 -4 c90 0 196 -3 235 -6 l73 -7 -68 -62 c-37 -34 -82 -75 -100 -90 l-33
-28 -87 13 c-48 7 -93 15 -99 19 -9 5 5 28 43 74 31 38 54 70 52 73 -3 2 -33
-30 -67 -71 -43 -52 -68 -74 -79 -71 -10 3 -39 8 -67 12 -27 3 -55 9 -61 13
-7 4 5 31 33 74 24 37 48 65 53 62 5 -3 82 -5 172 -5z m-2992 -102 c116 -106
122 -94 -61 -123 l-116 -18 -158 109 -158 109 74 6 c41 3 129 6 196 7 l123 2
100 -92z m3629 84 l84 -7 -158 -109 -158 -109 -76 12 c-42 6 -105 16 -140 23
l-64 11 99 93 99 93 115 0 c63 -1 153 -4 199 -7z m-3989 -113 c88 -61 159
-113 157 -115 -2 -2 -89 -19 -193 -38 l-189 -34 -258 131 c-188 96 -253 134
-240 139 10 4 122 11 248 16 127 5 249 9 272 10 39 2 56 -8 203 -109z m1660
106 c0 -2 -10 -10 -22 -16 -21 -11 -22 -11 -9 4 13 16 31 23 31 12z m651 -12
c13 -15 12 -15 -8 -4 -24 12 -29 21 -14 21 5 0 15 -7 22 -17z m2149 1 c107 -4
201 -9 207 -13 7 -4 -101 -64 -245 -138 l-257 -131 -189 34 c-104 19 -191 36
-193 38 -2 2 67 54 154 115 l158 111 85 -5 c47 -2 173 -7 280 -11z m-2863 -11
c-9 -9 -19 -14 -23 -11 -10 10 6 28 24 28 15 0 15 -1 -1 -17z m768 6 c12 -19
-5 -23 -22 -6 -16 16 -16 17 -1 17 9 0 20 -5 23 -11z m-811 -13 c-5 -12 -44
-31 -44 -21 0 17 16 35 31 35 12 0 16 -5 13 -14z m866 10 c0 -2 3 -11 6 -19 4
-12 0 -14 -15 -10 -27 7 -36 33 -11 33 11 0 20 -2 20 -4z m-2939 -138 c143
-73 259 -136 259 -140 0 -5 -8 -8 -17 -8 -10 0 -140 -23 -290 -51 l-273 -51
-308 110 c-465 167 -572 206 -572 213 0 3 127 13 283 23 155 10 334 21 397 25
63 5 148 9 189 10 l74 1 258 -132z m1949 87 c-7 -8 -20 -15 -30 -15 -26 0 -14
48 14 52 24 3 33 -16 16 -37z m70 41 c0 -18 -15 -36 -31 -36 -21 0 -22 1 -13
24 5 14 44 24 44 12z m980 0 c0 -2 3 -11 6 -20 4 -12 0 -16 -15 -16 -12 0 -21
2 -21 4 0 2 -3 11 -6 20 -4 12 0 16 15 16 12 0 21 -2 21 -4z m70 -32 c0 -13
-6 -24 -13 -24 -18 0 -37 21 -37 41 0 12 6 15 25 11 18 -3 25 -11 25 -28z
m2735 6 c165 -11 317 -20 338 -20 83 0 78 -2 -535 -222 l-308 -110 -273 51
c-150 28 -280 51 -290 51 -9 0 -17 3 -17 8 0 4 116 67 258 140 l257 133 135
-6 c74 -3 270 -15 435 -25z m-3905 6 c0 -24 -23 -56 -40 -56 -16 0 -20 7 -20
30 0 27 3 30 30 30 17 0 30 -2 30 -4z m190 -5 c0 -5 -7 -12 -16 -15 -14 -5
-15 -4 -4 9 14 17 20 19 20 6z m820 -6 c11 -13 10 -14 -4 -9 -9 3 -16 10 -16
15 0 13 6 11 20 -6z m230 -15 c0 -39 -36 -42 -50 -4 -14 35 -14 34 20 34 27 0
30 -3 30 -30z m-1320 -10 c0 -24 -6 -33 -26 -41 -31 -11 -29 -13 -37 27 -7 38
-2 44 35 44 25 0 28 -4 28 -30z m1402 -10 c-5 -43 -4 -43 -36 -31 -20 8 -26
17 -26 41 0 29 2 31 33 28 30 -3 32 -5 29 -38z m-1479 -2 c6 -39 1 -46 -39
-54 -27 -5 -32 -3 -37 18 -12 41 -8 56 16 61 50 10 55 8 60 -25z m294 15 c-9
-9 -19 -14 -23 -11 -10 10 6 28 24 28 15 0 15 -1 -1 -17z m928 6 c12 -19 -5
-23 -22 -6 -16 16 -16 17 -1 17 9 0 20 -5 23 -11z m354 -4 c2 -2 0 -21 -3 -41
-7 -34 -9 -36 -39 -30 -41 8 -46 15 -40 54 5 33 7 34 42 27 20 -4 38 -8 40
-10z m-1659 -67 c0 -14 -44 -38 -71 -38 -10 0 -52 80 -46 86 2 3 24 8 48 12
41 8 45 7 56 -17 7 -14 12 -33 13 -43z m325 42 c-23 -25 -35 -26 -28 -1 3 11
12 22 22 24 24 5 26 -1 6 -23z m1038 -1 c3 -10 3 -19 -1 -19 -9 0 -42 32 -42
41 0 15 38 -4 43 -22z m414 7 c7 -6 -36 -86 -46 -86 -22 0 -71 23 -71 34 0 7
5 27 10 43 11 30 12 30 57 22 26 -5 48 -11 50 -13z m-4512 -50 c94 -35 295
-107 447 -162 153 -54 276 -99 274 -101 -1 -2 -101 -23 -222 -47 -120 -24
-331 -68 -467 -97 l-248 -52 -142 32 c-584 134 -1309 322 -1295 336 16 17
1249 148 1443 154 27 1 96 -20 210 -63z m7571 44 c446 -38 1199 -122 1212
-135 14 -14 -711 -202 -1295 -336 l-142 -32 -248 52 c-136 29 -347 73 -467 97
-121 24 -221 45 -222 47 -2 2 126 49 284 105 158 57 357 129 442 161 85 33
165 60 176 60 12 1 129 -8 260 -19z m-4949 -40 l21 -49 -51 -15 c-40 -12 -53
-12 -59 -3 -4 7 -19 31 -33 54 l-25 42 47 6 c27 4 53 8 58 10 6 2 12 4 16 4 3
1 14 -21 26 -49z m396 33 c-7 -18 -22 -33 -35 -33 -13 0 -9 38 5 43 25 11 36
7 30 -10z m1121 11 c16 -6 23 -44 9 -44 -14 0 -29 15 -36 33 -7 18 1 21 27 11z
m469 -9 l47 -6 -25 -42 c-14 -23 -29 -47 -33 -54 -6 -9 -19 -9 -59 3 l-51 15
21 49 c15 35 26 49 37 46 8 -2 36 -7 63 -11z m-1649 -27 c-12 -41 -44 -51 -44
-15 0 29 7 37 32 37 15 0 18 -5 12 -22z m126 12 c0 -5 -5 -10 -11 -10 -5 0 -7
5 -4 10 3 6 8 10 11 10 2 0 4 -4 4 -10z m975 0 c3 -5 1 -10 -4 -10 -6 0 -11 5
-11 10 0 6 2 10 4 10 3 0 8 -4 11 -10z m153 -22 c5 -42 -29 -33 -43 10 -6 21
-4 23 17 20 17 -2 24 -10 26 -30z m-1723 -19 c41 -64 41 -64 -22 -82 l-58 -17
-52 58 c-63 68 -71 62 -11 -9 49 -58 48 -59 -49 -85 l-62 -17 -70 64 c-39 35
-71 67 -71 70 0 4 35 12 78 18 134 20 146 22 187 30 86 18 102 15 130 -30z
m2276 30 c30 -5 68 -12 84 -14 138 -20 185 -28 185 -34 0 -3 -32 -35 -71 -70
l-70 -64 -62 17 c-97 26 -98 27 -49 85 60 71 52 77 -11 9 l-52 -58 -58 17
c-63 18 -63 18 -22 82 28 45 38 48 126 30z m-1871 -24 c0 -14 -8 -29 -21 -35
-24 -13 -24 -13 -33 22 -5 20 -2 28 11 31 36 9 43 7 43 -18z m150 16 c0 -5 -7
-14 -15 -21 -12 -10 -15 -10 -15 2 0 8 3 18 7 21 9 10 23 9 23 -2z m1069 -17
c3 -16 1 -17 -13 -5 -19 16 -21 34 -3 29 6 -3 14 -13 16 -24z m158 20 c19 -5
22 -11 16 -33 -8 -34 -8 -34 -32 -21 -13 6 -21 21 -21 35 0 27 3 28 37 19z
m-1443 -36 c9 -35 8 -36 -23 -53 -29 -14 -29 -14 -40 17 -14 40 -15 37 12 48
35 14 44 12 51 -12z m169 3 c-7 -27 -33 -36 -33 -12 0 17 11 28 32 30 3 1 4
-8 1 -18z m1151 13 c9 -3 16 -15 16 -25 0 -24 -26 -15 -33 12 -6 21 -5 22 17
13z m219 -13 c4 -4 2 -22 -4 -39 -11 -31 -11 -31 -40 -17 -31 17 -32 18 -23
53 6 19 11 22 33 17 14 -4 29 -10 34 -14z m-1616 -36 c11 -33 10 -36 -17 -50
-16 -8 -31 -15 -34 -15 -7 0 -36 56 -36 68 0 7 43 26 71 31 3 1 11 -15 16 -34z
m203 21 c0 -8 -8 -22 -17 -32 -17 -17 -18 -17 -21 5 -2 13 2 28 10 32 19 13
28 11 28 -5z m1248 5 c8 -4 12 -19 10 -32 -3 -22 -4 -22 -20 -5 -30 29 -22 58
10 37z m238 -7 c28 -7 29 -15 9 -54 -18 -35 -17 -35 -55 -15 -26 14 -28 17
-19 47 5 18 9 35 9 37 0 2 7 0 16 -3 9 -3 27 -9 40 -12z m-2300 -55 c38 -34
73 -65 78 -70 5 -4 -37 -22 -92 -39 l-101 -31 -110 73 c-61 40 -110 76 -111
79 0 5 206 45 251 48 10 0 48 -27 85 -60z m878 46 c-4 -8 -11 -15 -16 -15 -6
0 -5 6 2 15 7 8 14 15 16 15 2 0 1 -7 -2 -15z m1112 -12 c-7 -7 -26 7 -26 19
0 6 6 6 15 -2 9 -7 13 -15 11 -17z m1087 1 c59 -9 107 -20 107 -23 -1 -3 -50
-39 -111 -79 l-110 -73 -101 31 c-55 17 -97 35 -92 39 135 123 149 133 173
128 15 -3 74 -13 134 -23z m-2553 -34 l20 -40 -40 -20 -40 -20 -26 40 c-15 22
-24 44 -20 48 4 4 24 12 44 18 20 7 38 12 39 13 2 1 12 -17 23 -39z m229 -14
c0 -33 -6 -59 -14 -66 -21 -18 -28 20 -8 43 16 18 16 20 2 14 -24 -8 -32 40
-10 53 27 16 30 12 30 -44z m1370 44 c24 -12 17 -62 -8 -53 -14 6 -14 4 2 -14
20 -23 13 -61 -8 -43 -13 11 -20 120 -9 120 3 0 13 -4 23 -10z m307 -22 c4 -4
-5 -26 -20 -48 l-26 -40 -40 20 -40 20 20 39 19 39 40 -12 c22 -6 43 -15 47
-18z m-1586 13 c0 -5 -7 -14 -15 -21 -12 -10 -15 -10 -15 2 0 8 3 18 7 21 9
10 23 9 23 -2z m1189 -17 c3 -16 1 -17 -13 -5 -19 16 -21 34 -3 29 6 -3 14
-13 16 -24z m-2280 -70 c61 -41 111 -77 111 -79 0 -2 -60 -23 -132 -46 l-132
-42 -176 88 -175 88 175 32 c96 18 185 33 196 34 12 0 72 -33 133 -75z m944
54 c7 -25 3 -34 -23 -48 -15 -8 -20 -5 -29 21 -9 27 -8 31 12 39 32 13 34 12
40 -12z m101 -10 c-4 -13 -7 -29 -6 -36 2 -6 -1 -20 -7 -29 -7 -13 -9 -5 -9
32 0 27 5 53 11 57 17 10 20 3 11 -24z m1274 -34 c0 -48 -10 -52 -14 -6 -2 15
-6 38 -10 52 -7 22 -6 23 8 12 11 -8 16 -29 16 -58z m134 47 c3 -3 1 -19 -5
-35 l-12 -28 -24 19 c-31 25 -22 68 12 57 12 -3 25 -9 29 -13z m1208 -15 l185
-33 -175 -88 -176 -88 -133 43 c-80 25 -130 45 -124 51 24 24 210 147 223 148
8 0 98 -14 200 -33z m-7039 -37 c239 -68 843 -220 1077 -271 83 -18 152 -35
152 -38 0 -3 -69 -20 -153 -38 -330 -72 -1055 -257 -1224 -313 l-62 -20 -128
21 c-619 101 -970 219 -999 336 -29 115 288 240 871 343 66 11 143 25 170 30
28 5 57 9 66 10 9 0 113 -26 230 -60z m4047 26 c12 -19 22 -38 22 -43 0 -4
-20 -18 -44 -30 l-45 -21 -41 48 -40 49 42 15 c67 23 81 20 106 -18z m2108 16
c32 -11 92 -29 133 -41 l73 -21 -23 -26 c-13 -14 -41 -38 -61 -54 l-37 -30
-56 28 -56 29 37 42 c20 24 34 45 32 48 -3 2 -22 -16 -42 -40 l-36 -45 -43 19
c-23 10 -43 23 -45 29 -4 13 40 81 54 81 6 0 37 -9 70 -19z m4319 -6 c568 -97
886 -199 950 -307 30 -52 -1 -101 -99 -157 -132 -75 -467 -162 -889 -231
l-128 -21 -62 20 c-169 56 -894 241 -1224 313 -84 18 -153 35 -153 38 0 3 69
20 153 38 231 50 878 214 1087 275 102 30 192 55 200 56 8 0 83 -10 165 -24z
m-6212 -22 c4 -21 1 -33 -15 -45 -11 -10 -24 -18 -28 -18 -8 0 -35 59 -29 64
12 10 46 25 55 26 7 0 14 -12 17 -27z m187 6 c-7 -11 -14 -18 -17 -15 -3 3 0
12 7 21 18 21 23 19 10 -6z m1218 -15 c-4 -3 -12 5 -18 18 -12 22 -12 22 6 6
10 -10 15 -20 12 -24z m217 24 c28 -13 30 -17 13 -53 -13 -30 -19 -31 -46 -7
-16 12 -19 24 -15 45 6 30 11 32 48 15z m-1955 -55 l41 -47 -56 -28 -56 -29
-37 30 c-20 16 -48 40 -61 54 l-23 26 63 19 c35 11 69 21 76 21 6 1 30 -20 53
-46z m-905 -60 c96 -48 172 -90 168 -94 -5 -4 -87 -33 -184 -65 l-176 -58
-276 94 c-152 52 -274 96 -272 99 4 3 508 103 557 110 4 1 86 -38 183 -86z
m1163 62 c17 -36 16 -38 -17 -58 -29 -17 -30 -17 -50 12 -27 38 -26 45 7 58
41 16 48 15 60 -12z m146 3 c6 -24 -19 -53 -35 -42 -13 8 -11 38 3 52 17 17
25 15 32 -10z m1464 10 c14 -14 16 -44 3 -52 -16 -11 -41 18 -35 42 7 25 15
27 32 10z m169 0 c39 -14 40 -20 12 -59 -20 -29 -21 -29 -50 -12 -33 20 -34
22 -17 58 13 29 11 29 55 13z m1573 -43 c135 -25 253 -49 263 -53 12 -5 -68
-36 -259 -101 l-277 -95 -176 58 c-97 32 -180 62 -184 66 -13 12 334 179 363
174 14 -2 135 -24 270 -49z m-3758 -27 l60 -52 -64 -32 c-34 -18 -70 -33 -79
-34 -24 0 -175 108 -158 115 25 10 164 53 173 54 4 1 35 -22 68 -51z m594 17
c-3 -8 -10 -15 -16 -15 -14 0 -12 37 3 43 15 5 21 -8 13 -28z m1374 3 c0 -26
-24 -18 -28 10 -3 16 1 20 12 16 9 -3 16 -15 16 -26z m719 6 c47 -15 90 -28
94 -31 10 -6 -142 -113 -160 -113 -7 0 -42 15 -79 33 l-66 32 59 52 c32 29 60
53 62 53 2 0 42 -12 90 -26z m-2358 -21 l20 -32 -37 -24 -36 -25 -30 33 c-16
19 -29 38 -28 42 1 11 62 43 78 40 7 -1 22 -16 33 -34z m172 15 c4 -14 0 -29
-10 -40 -22 -24 -28 -23 -42 8 -10 22 -9 28 6 40 26 19 40 17 46 -8z m1580 8
c15 -12 16 -18 6 -40 -14 -31 -20 -32 -42 -8 -10 11 -14 26 -10 40 6 25 20 27
46 8z m208 -7 l40 -20 -33 -38 c-33 -37 -33 -38 -61 -22 -44 25 -48 34 -25 69
24 38 27 38 79 11z m-1661 -4 c0 -8 -4 -15 -10 -15 -5 0 -7 7 -4 15 4 8 8 15
10 15 2 0 4 -7 4 -15z m1294 0 c3 -8 1 -15 -4 -15 -6 0 -10 7 -10 15 0 8 2 15
4 15 2 0 6 -7 10 -15z m-1368 -51 c-3 -8 -10 -14 -15 -14 -17 0 -18 34 -2 54
15 18 16 18 19 -4 2 -12 1 -28 -2 -36z m1457 5 c-3 -10 -9 -19 -14 -19 -13 0
-27 32 -21 52 4 17 6 18 22 3 10 -9 16 -24 13 -36z m-1569 5 c5 -18 2 -32 -10
-45 -22 -25 -28 -24 -49 8 -17 25 -17 27 6 44 33 25 46 24 53 -7z m1705 7 c23
-17 23 -19 6 -44 -21 -32 -27 -33 -49 -8 -12 13 -15 27 -10 45 7 31 20 32 53
7z m-1916 -25 c15 -19 27 -37 27 -40 0 -3 -18 -18 -40 -32 l-40 -27 -45 37
c-25 21 -45 41 -45 45 0 9 87 50 105 51 6 0 22 -16 38 -34z m358 -9 c-8 -8
-11 -5 -11 9 0 27 14 41 18 19 2 -9 -1 -22 -7 -28z m1369 12 c0 -11 -4 -17
-10 -14 -5 3 -10 15 -10 26 0 11 5 17 10 14 6 -3 10 -15 10 -26z m440 9 c27
-12 50 -25 50 -29 0 -4 -20 -24 -45 -45 l-45 -37 -40 27 c-22 14 -40 29 -40
32 0 9 55 74 62 74 4 0 30 -10 58 -22z m-2581 -44 l85 -57 -94 -44 -95 -44
-123 57 c-67 32 -119 61 -115 65 10 9 222 77 243 78 8 1 53 -24 99 -55z m3121
20 c63 -20 118 -39 123 -43 4 -4 -48 -33 -115 -65 l-123 -57 -95 44 -94 44 85
57 c46 31 88 56 94 56 5 0 61 -16 125 -36z m-2417 7 c3 -12 -3 -27 -14 -37
-18 -16 -19 -16 -28 7 -7 18 -5 27 7 37 22 17 29 15 35 -7z m1529 7 c12 -10
14 -19 7 -37 -9 -23 -10 -23 -28 -7 -11 10 -17 25 -14 37 6 22 13 24 35 7z
m-3305 -90 c150 -51 273 -95 273 -98 0 -3 -126 -48 -280 -100 l-280 -94 -332
67 c-513 105 -588 121 -588 127 0 5 285 66 785 169 50 10 103 19 119 20 16 0
152 -41 303 -91z m1643 41 c7 -12 1 -22 -22 -39 l-30 -22 -24 28 c-13 16 -23
32 -24 36 0 3 15 15 33 27 34 22 40 20 67 -30z m177 16 c-3 -21 -2 -33 4 -30
5 4 9 -5 9 -19 0 -38 -13 -32 -27 11 -7 25 -8 43 -2 55 15 28 22 21 16 -17z
m1427 -15 c-4 -8 -9 -25 -11 -37 -7 -31 -23 -29 -23 3 0 14 4 23 9 19 6 -3 8
10 5 32 -5 36 -5 37 11 18 8 -11 13 -26 9 -35z m240 17 c18 -13 18 -15 -4 -45
-13 -18 -26 -32 -29 -32 -3 1 -18 11 -33 23 l-27 22 20 32 c22 34 28 34 73 0z
m2186 -31 c510 -105 580 -120 580 -126 0 -6 -74 -22 -588 -126 l-333 -68 -279
94 c-154 52 -280 97 -280 100 0 8 533 188 560 189 14 1 167 -28 340 -63z
m-4302 -2 c23 -19 42 -39 42 -44 0 -4 -23 -22 -50 -40 l-50 -32 -66 43 -66 43
63 32 c35 18 69 33 75 34 6 0 29 -16 52 -36z m358 11 c4 -18 1 -32 -12 -46
-18 -20 -18 -20 -32 6 -12 24 -11 29 4 46 23 25 32 24 40 -6z m121 3 c-3 -8
-6 -5 -6 6 -1 11 2 17 5 13 3 -3 4 -12 1 -19z m1350 0 c-3 -8 -6 -5 -6 6 -1
11 2 17 5 13 3 -3 4 -12 1 -19z m157 3 c15 -17 16 -22 4 -46 -14 -26 -14 -26
-32 -6 -13 14 -16 28 -12 46 8 30 17 31 40 6z m445 -15 l63 -32 -66 -43 -66
-43 -50 32 c-27 18 -50 36 -50 40 0 12 81 80 94 80 6 -1 40 -16 75 -34z
m-2009 -14 c0 -9 -4 -23 -9 -31 -7 -11 -11 -9 -21 8 -9 17 -9 26 0 37 15 17
30 9 30 -14z m1489 14 c10 -11 10 -20 1 -37 -10 -17 -14 -19 -21 -8 -11 18
-12 59 0 59 5 0 14 -6 20 -14z m-1723 -27 l29 -31 -34 -28 -34 -29 -39 30
c-21 17 -38 32 -38 34 0 6 73 55 80 55 4 0 19 -14 36 -31z m2007 6 c20 -14 37
-27 37 -30 0 -2 -17 -17 -38 -34 l-39 -30 -34 29 -34 28 29 31 c17 17 32 31
36 31 3 0 22 -11 43 -25z m-2738 -42 c63 -32 115 -60 115 -64 0 -3 -55 -32
-122 -64 l-122 -58 -183 59 c-100 33 -182 61 -182 64 0 6 338 118 361 119 10
1 70 -25 133 -56z m3702 0 c100 -32 182 -60 182 -63 0 -3 -82 -31 -182 -64
l-183 -59 -122 58 c-67 32 -122 61 -122 64 0 7 218 119 235 121 6 1 92 -25
192 -57z m-2852 21 c16 -25 16 -27 -6 -50 l-23 -24 -22 27 -22 28 21 23 c26
28 31 28 52 -4z m1742 4 l21 -23 -22 -28 -22 -27 -23 24 c-22 23 -22 25 -6 50
21 32 26 32 52 4z m-2190 -39 c35 -23 63 -45 63 -49 0 -4 -29 -26 -64 -49
l-64 -42 -86 43 c-47 23 -86 45 -86 48 0 5 157 88 169 89 3 1 33 -18 68 -40z
m537 -4 c17 -43 17 -47 0 -90 -17 -46 -29 -52 -48 -23 -14 23 11 53 30 37 17
-14 19 2 2 19 -9 9 -9 15 0 24 7 7 12 17 12 22 0 6 -5 5 -12 -2 -8 -8 -15 -9
-25 -1 -16 14 -17 31 -1 47 19 19 24 15 42 -33z m1560 23 c14 -23 -11 -53 -30
-37 -17 14 -19 -2 -2 -19 9 -9 9 -15 0 -24 -17 -17 -15 -33 2 -19 19 16 44
-14 30 -37 -19 -29 -31 -23 -48 23 -17 43 -17 47 0 90 17 46 29 52 48 23z
m641 -20 c47 -23 85 -45 85 -48 0 -3 -39 -25 -86 -48 l-86 -43 -64 42 c-35 23
-64 45 -64 49 0 6 118 90 127 90 2 0 41 -19 88 -42z m-2162 -10 c-10 -21 -12
-21 -18 -5 -10 25 2 54 17 39 8 -8 8 -18 1 -34z m1457 12 c0 -10 -4 -21 -9
-25 -12 -7 -25 31 -16 45 9 15 25 2 25 -20z m-1781 -24 c27 -28 22 -39 -29
-76 -26 -19 -26 -19 -73 12 -26 17 -47 34 -47 38 0 4 21 21 47 38 51 33 61 32
102 -12z m357 17 c-10 -10 -19 5 -10 18 6 11 8 11 12 0 2 -7 1 -15 -2 -18z
m1384 6 c0 -5 -4 -9 -10 -9 -5 0 -10 7 -10 16 0 8 5 12 10 9 6 -3 10 -10 10
-16z m471 -30 l24 -19 -24 -19 c-14 -10 -37 -26 -51 -35 -26 -15 -28 -14 -66
19 l-39 35 38 35 c37 35 38 36 65 19 16 -9 39 -25 53 -35z m-2071 6 l23 -25
-23 -25 c-13 -14 -27 -25 -31 -25 -4 0 -21 11 -36 25 l-28 25 28 25 c15 14 32
25 36 25 4 0 18 -11 31 -25z m100 -26 c0 -9 -6 -22 -13 -28 -11 -8 -18 -6 -31
8 -17 18 -17 21 0 46 17 25 19 26 31 9 7 -10 13 -25 13 -35z m1645 25 c16 -24
16 -27 -1 -45 -22 -25 -29 -24 -41 4 -7 16 -6 28 5 45 8 12 16 22 17 22 1 0
10 -12 20 -26z m122 1 l28 -25 -28 -25 c-15 -14 -32 -25 -36 -25 -4 0 -18 11
-31 25 l-23 25 23 25 c13 14 27 25 31 25 4 0 21 -11 36 -25z m-1667 -27 c0
-16 -3 -19 -11 -11 -6 6 -8 16 -5 22 11 17 16 13 16 -11z m1412 -10 c-9 -9
-12 -7 -12 12 0 19 3 21 12 12 9 -9 9 -15 0 -24z m-4354 -24 c64 -14 270 -57
456 -95 187 -38 341 -71 342 -72 1 -1 -115 -44 -259 -96 -144 -51 -347 -125
-450 -163 l-189 -70 -136 11 c-460 39 -877 82 -1171 122 -79 10 -151 19 -160
19 -36 1 20 20 229 78 366 102 1134 289 1193 291 15 1 80 -11 145 -25z m1602
-29 c91 -30 172 -58 180 -61 9 -4 -53 -40 -162 -94 l-176 -89 -269 50 c-147
27 -277 53 -287 57 -14 6 55 33 250 99 148 51 276 92 284 92 9 1 90 -24 180
-54z m580 11 l94 -43 -88 -59 -87 -58 -102 33 c-183 58 -179 47 -42 112 66 32
123 58 126 58 3 1 48 -19 99 -43z m302 13 c26 -17 48 -35 48 -39 0 -5 -21 -26
-46 -46 l-45 -38 -71 35 -70 35 63 42 c35 23 66 42 68 42 2 0 26 -14 53 -31z
m203 -8 c19 -22 19 -22 -12 -52 l-30 -31 -44 27 -43 28 38 33 c41 36 54 35 91
-5z m125 -10 c0 -3 -9 -17 -20 -31 l-19 -25 -25 24 -25 24 20 29 21 29 24 -22
c13 -12 24 -25 24 -28z m1728 -28 c-27 -29 -32 -29 -53 3 -16 25 -16 27 7 51
l23 24 22 -28 22 -27 -21 -23z m171 23 c10 -12 6 -19 -30 -41 l-42 -27 -31 32
-31 31 33 30 33 30 28 -20 c15 -11 33 -27 40 -35z m209 12 l64 -42 -70 -35
-71 -35 -45 38 c-25 20 -46 41 -46 45 0 8 89 71 99 71 3 0 34 -19 69 -42z
m402 -15 c79 -37 116 -59 107 -64 -7 -5 -66 -25 -130 -45 l-116 -37 -88 58
-87 58 89 43 c50 23 93 43 97 43 3 1 61 -25 128 -56z m819 -35 c199 -67 269
-94 255 -100 -10 -4 -140 -30 -287 -57 l-269 -50 -176 89 c-109 54 -171 90
-162 94 51 20 338 115 350 115 8 1 138 -40 289 -91z m1603 22 c336 -78 641
-156 913 -232 178 -50 228 -67 194 -68 -9 0 -81 -9 -160 -19 -294 -40 -711
-83 -1171 -122 l-136 -11 -189 70 c-103 38 -306 112 -450 163 -144 52 -260 95
-259 96 1 1 144 31 317 67 172 36 375 78 449 94 74 17 147 31 162 31 15 1 164
-31 330 -69z m-4816 14 c-3 -9 -10 -13 -16 -9 -6 4 -7 -5 -4 -23 7 -34 -8 -49
-26 -27 -9 11 -8 20 3 42 9 15 18 37 22 48 6 19 7 19 17 2 5 -10 7 -25 4 -33z
m1454 20 c0 -8 7 -26 16 -39 13 -20 14 -28 4 -40 -18 -22 -33 -7 -26 27 3 16
2 27 -3 23 -14 -8 -23 12 -16 35 7 22 25 18 25 -6z m-1420 -10 c0 -8 -4 -12
-10 -9 -5 3 -10 13 -10 21 0 8 5 12 10 9 6 -3 10 -13 10 -21z m1380 7 c0 -6
-4 -13 -10 -16 -5 -3 -10 1 -10 9 0 9 5 16 10 16 6 0 10 -4 10 -9z m-1490 -70
c0 -9 -5 -23 -10 -31 -8 -13 -13 -12 -32 7 -20 20 -20 25 -8 48 13 24 14 24
32 8 10 -9 18 -23 18 -32z m1624 -22 c-23 -25 -32 -24 -40 6 -4 18 -1 32 12
46 18 20 18 20 32 -6 12 -24 11 -29 -4 -46z m-1732 38 l28 -22 -21 -32 -21
-33 -31 22 c-18 12 -34 23 -35 24 -5 3 40 64 47 64 3 0 18 -10 33 -23z m208
-3 c0 -14 -4 -23 -9 -19 -6 3 -8 -10 -5 -32 5 -36 5 -37 -11 -18 -8 11 -13 26
-9 35 4 8 9 25 11 38 7 30 23 28 23 -4z m1403 4 c2 -13 7 -30 11 -38 4 -9 -1
-24 -9 -35 -16 -19 -16 -18 -11 18 3 22 1 35 -5 32 -5 -4 -9 5 -9 19 0 32 16
34 23 4z m246 -9 c13 -17 21 -32 19 -33 -1 -1 -17 -12 -35 -24 l-31 -22 -21
33 -21 32 28 22 c15 13 30 23 33 23 3 0 15 -14 28 -31z m-2006 -4 c20 -14 37
-29 37 -33 -1 -4 -14 -22 -30 -41 l-29 -34 -55 23 c-31 12 -56 26 -56 30 0 9
80 80 89 80 4 0 23 -11 44 -25z m2183 -11 c24 -19 44 -39 44 -43 0 -4 -25 -18
-56 -30 l-55 -24 -29 34 c-16 19 -29 37 -30 41 0 7 69 58 79 58 2 0 24 -16 47
-36z m-2408 -17 l63 -33 -60 -53 -61 -52 -87 27 c-49 16 -91 31 -95 34 -10 7
142 110 162 110 8 -1 43 -16 78 -33z m2714 -19 c43 -29 74 -55 70 -58 -4 -3
-46 -18 -95 -34 l-87 -27 -61 52 -60 53 63 33 c35 17 70 32 78 33 8 0 50 -23
92 -52z m-2189 -19 c-6 -22 -13 -24 -37 -6 -16 11 -17 17 -6 36 11 21 13 22
30 6 10 -9 16 -24 13 -36z m74 29 c-3 -8 -6 -5 -6 6 -1 11 2 17 5 13 3 -3 4
-12 1 -19z m1350 0 c-3 -8 -6 -5 -6 6 -1 11 2 17 5 13 3 -3 4 -12 1 -19z m123
-20 c0 -7 -33 -28 -44 -28 -13 0 -11 37 3 53 15 17 16 17 28 1 7 -10 13 -21
13 -26z m-2486 -9 c69 -22 126 -41 126 -43 0 -2 -51 -38 -113 -80 l-113 -77
-184 32 c-180 31 -198 35 -189 43 10 10 325 165 336 165 6 1 68 -17 137 -40z
m850 22 c12 -13 15 -27 10 -45 -7 -31 -20 -32 -53 -7 -23 17 -23 19 -6 44 21
32 27 33 49 8z m1721 -8 c17 -25 17 -27 -6 -44 -33 -25 -46 -24 -53 7 -5 18
-2 32 10 45 22 25 28 24 49 -8z m1108 -54 c170 -85 173 -87 166 -93 -2 -2 -87
-18 -189 -35 l-184 -32 -113 77 c-63 42 -112 79 -109 81 6 6 239 82 254 82 7
1 85 -36 175 -80z m-2940 39 c27 -19 27 -20 10 -50 -24 -41 -34 -43 -82 -18
l-42 21 33 39 c18 21 37 36 43 33 5 -4 22 -15 38 -25z m1981 -15 l28 -31 -42
-22 c-49 -25 -59 -23 -83 18 l-18 31 38 25 c20 14 40 22 43 18 3 -4 18 -21 34
-39z m-1704 -4 c0 -11 -4 -17 -10 -14 -5 3 -10 15 -10 26 0 11 5 17 10 14 6
-3 10 -15 10 -26z m1351 -12 c-8 -8 -11 -5 -11 9 0 27 14 41 18 19 2 -9 -1
-22 -7 -28z m-1788 -9 l27 -14 -43 -48 -42 -49 -74 24 -73 24 56 52 c62 58 61
58 149 11z m395 1 c4 -33 3 -33 -16 -16 -12 11 -18 26 -15 38 8 30 28 17 31
-22z m1455 22 c3 -12 -3 -27 -13 -36 -16 -15 -18 -14 -22 3 -6 20 8 52 21 52
5 0 11 -9 14 -19z m513 -34 l56 -52 -73 -24 -74 -24 -42 49 -43 49 52 27 c29
15 56 27 60 28 4 0 33 -24 64 -53z m-2033 25 c10 -11 14 -26 10 -40 -6 -25
-20 -27 -46 -8 -15 12 -16 18 -6 40 14 31 20 32 42 8z m1596 -8 c10 -22 9 -28
-6 -40 -26 -19 -40 -17 -46 8 -4 14 0 29 10 40 22 24 28 23 42 -8z m-3312 -50
c145 -27 263 -51 263 -54 0 -3 -118 -65 -261 -139 l-261 -134 -197 12 c-455
25 -741 45 -741 50 0 6 266 105 685 256 120 43 192 63 215 62 19 -2 153 -25
297 -53z m1643 15 c0 -9 -17 -47 -26 -57 -5 -7 -74 22 -74 31 0 5 9 22 21 38
20 28 21 28 50 14 16 -9 29 -20 29 -26z m1800 -24 c0 -10 -68 -41 -74 -33 -9
10 -26 48 -26 57 0 6 12 17 28 25 26 14 28 14 49 -12 13 -15 23 -32 23 -37z
m2121 -25 c370 -132 619 -224 619 -231 0 -5 -285 -25 -741 -50 l-197 -12 -261
134 c-143 74 -261 137 -261 142 0 4 10 7 23 7 12 1 132 23 267 49 135 27 257
49 271 50 14 0 140 -40 280 -89z m-4496 36 c55 -18 164 -53 243 -76 97 -30
141 -48 138 -56 -3 -7 -17 -31 -31 -55 l-27 -42 -56 7 c-111 13 -109 11 -56
73 25 30 44 56 41 59 -2 3 -26 -22 -53 -55 -30 -38 -55 -59 -64 -56 -8 2 -52
9 -97 16 -46 6 -83 14 -83 18 0 3 30 34 67 69 38 35 59 59 48 53 -11 -5 -31
-21 -45 -36 -14 -15 -42 -40 -62 -56 l-36 -29 -131 21 c-72 12 -131 25 -131
28 1 8 212 150 225 150 6 1 55 -14 110 -33z m753 4 c3 -21 2 -22 -12 -11 -19
16 -21 44 -3 39 6 -3 14 -15 15 -28z m32 15 c0 -8 -2 -15 -4 -15 -2 0 -6 7
-10 15 -3 8 -1 15 4 15 6 0 10 -7 10 -15z m1294 0 c-4 -8 -8 -15 -10 -15 -2 0
-4 7 -4 15 0 8 4 15 10 15 5 0 7 -7 4 -15z m46 1 c0 -7 -7 -19 -15 -26 -12
-10 -15 -9 -15 7 0 11 3 23 7 26 11 12 23 8 23 -7z m950 -58 c60 -40 110 -76
110 -79 0 -3 -48 -14 -107 -23 -60 -10 -120 -20 -134 -23 -21 -4 -39 7 -97 61
-40 36 -75 66 -80 66 -4 -1 23 -29 61 -63 37 -34 67 -65 67 -68 0 -4 -37 -12
-82 -18 -46 -7 -90 -14 -98 -16 -9 -3 -34 18 -64 56 -27 33 -51 58 -53 55 -3
-3 16 -29 41 -59 53 -62 55 -60 -56 -73 l-56 -7 -27 42 c-14 24 -28 48 -31 55
-3 8 40 26 138 55 79 24 186 58 238 77 52 18 101 33 108 33 6 1 61 -32 122
-71z m-2632 13 c4 -12 -40 -81 -51 -81 -5 0 -33 7 -63 16 l-55 16 41 48 41 49
42 -19 c23 -10 43 -23 45 -29z m266 6 c-9 -30 -11 -32 -29 -17 -15 13 -20 42
-9 53 4 3 15 2 26 -4 14 -7 17 -16 12 -32z m1476 14 c0 -18 -26 -48 -34 -40
-15 17 -15 49 1 57 22 13 33 7 33 -17z m349 -20 l42 -49 -55 -16 c-30 -9 -58
-16 -63 -16 -9 0 -53 65 -53 79 0 6 19 19 43 30 23 11 43 20 44 20 0 1 20 -21
42 -48z m-1909 11 c18 -15 20 -21 11 -45 -12 -31 -12 -31 -46 -15 -28 13 -30
17 -13 53 13 30 19 31 48 7z m1648 -7 c17 -37 16 -41 -18 -55 -35 -14 -35 -14
-44 22 -5 21 -1 30 16 42 30 21 33 20 46 -9z m-1482 -23 c2 -15 6 -38 10 -52
7 -22 6 -23 -8 -12 -11 8 -16 29 -16 58 0 48 10 52 14 6z m1282 -6 c0 -29 -5
-50 -16 -58 -14 -11 -15 -10 -8 12 4 14 9 36 10 50 6 57 14 55 14 -4z m-1319
-42 c0 -58 -1 -59 -28 -44 -24 12 -17 62 8 53 14 -6 14 -4 -2 14 -20 23 -13
61 8 43 8 -7 14 -33 14 -66z m1364 24 c-15 -18 -16 -21 -2 -15 25 9 32 -41 8
-53 -27 -15 -28 -14 -27 43 0 58 15 89 31 62 6 -12 3 -23 -10 -37z m-1593 -37
l-19 -39 -40 12 c-22 6 -43 15 -47 18 -4 4 5 26 20 48 l26 40 40 -20 40 -20
-20 -39z m1886 39 c15 -22 24 -44 20 -48 -4 -3 -25 -12 -47 -18 l-40 -12 -19
39 -20 38 37 20 c21 11 39 20 40 21 2 0 15 -18 29 -40z m-1714 -21 c-3 -31 -5
-32 -35 -18 -23 10 -24 14 -15 41 10 27 12 28 32 14 13 -9 20 -23 18 -37z
m1495 -16 c-30 -17 -34 -16 -41 10 -4 16 0 27 16 41 22 18 23 18 34 -10 11
-26 10 -30 -9 -41z m-1366 35 c11 -21 11 -22 -4 -9 -10 7 -17 17 -17 22 0 15
9 10 21 -13z m1205 -6 c-18 -16 -18 -16 -6 6 6 13 14 21 18 18 3 -4 -2 -14
-12 -24z m-2641 -12 c205 -37 227 -42 219 -50 -5 -4 -78 -55 -162 -114 l-153
-105 -262 10 c-144 6 -275 14 -290 18 -25 6 1 22 230 139 159 82 266 130 278
128 11 -3 74 -14 140 -26z m4487 -102 c230 -117 256 -133 231 -139 -15 -4
-146 -12 -290 -18 l-262 -10 -161 111 c-88 61 -158 113 -156 115 2 2 68 15
147 29 79 14 160 29 179 34 19 4 39 8 44 9 5 1 126 -59 268 -131z m-3283 101
c22 -8 30 -16 27 -26 -4 -8 -9 -25 -12 -38 -5 -21 -8 -22 -45 -13 -21 6 -39
15 -39 20 0 10 29 68 34 68 2 0 17 -5 35 -11z m1716 -19 c22 -42 20 -46 -24
-58 -37 -9 -40 -8 -45 13 -3 13 -8 30 -12 38 -3 10 4 18 23 25 41 15 41 15 58
-18z m-1467 -26 c-10 -10 -28 6 -28 24 0 15 1 15 17 -1 9 -9 14 -19 11 -23z
m1183 3 c-16 -16 -26 0 -10 19 9 11 15 12 17 4 2 -6 -1 -17 -7 -23z m-1335
-30 c-3 -12 -6 -26 -6 -31 0 -9 -50 1 -63 13 -4 4 -2 22 4 39 11 31 11 31 41
16 23 -12 29 -20 24 -37z m1537 -18 c-12 -12 -63 -22 -63 -13 0 5 -3 19 -6 31
-5 16 1 25 23 37 27 14 28 14 41 -16 7 -17 10 -34 5 -39z m-5948 42 c207 -31
674 -83 1005 -111 135 -11 272 -24 305 -28 l59 -7 -89 -34 c-343 -128 -971
-387 -1185 -488 l-95 -45 -170 1 c-401 3 -760 47 -908 110 -208 89 -81 235
358 412 189 76 596 209 625 204 14 -2 57 -9 95 -14z m4519 3 c23 -22 20 -43
-4 -37 -13 3 -20 14 -20 29 0 28 3 29 24 8z m1276 -8 c0 -15 -7 -26 -20 -29
-24 -6 -27 15 -4 37 21 21 24 20 24 -8z m4827 -47 c845 -275 1063 -483 618
-590 -164 -39 -480 -68 -780 -70 l-170 -1 -95 45 c-214 101 -842 360 -1185
488 l-89 34 59 7 c33 4 170 17 305 28 413 35 913 93 1112 129 3 0 104 -31 225
-70z m-6426 37 l27 -11 -22 -45 c-20 -42 -23 -45 -58 -42 -20 2 -48 6 -62 10
l-25 7 32 52 c34 56 40 58 108 29z m2006 -28 l32 -53 -27 -6 c-15 -4 -43 -9
-63 -12 -35 -5 -36 -4 -57 44 l-20 49 46 14 c26 8 49 15 52 15 3 1 19 -23 37
-51z m-2693 22 c65 -11 120 -21 122 -23 2 -2 -42 -45 -97 -95 l-101 -92 -102
1 c-55 1 -144 4 -195 8 l-95 6 155 107 c84 59 163 107 174 108 11 0 74 -9 139
-20z m1091 9 c11 -17 -1 -21 -15 -4 -8 9 -8 15 -2 15 6 0 14 -5 17 -11z m1105
-4 c-7 -9 -15 -13 -17 -11 -7 7 7 26 19 26 6 0 6 -6 -2 -15z m1388 -92 l156
-108 -94 -6 c-52 -4 -141 -7 -196 -8 l-102 -1 -101 92 c-56 50 -100 93 -97 95
5 5 215 41 250 42 20 1 70 -28 184 -106z m-2627 87 c5 0 9 -14 9 -31 0 -29 -2
-31 -27 -24 -35 8 -32 5 -26 38 4 19 10 26 20 23 8 -3 19 -6 24 -6z m112 -21
c4 -15 2 -19 -10 -15 -8 3 -17 6 -19 6 -2 0 -4 9 -4 20 0 25 26 16 33 -11z
m1155 -10 c-21 -14 -28 -11 -21 9 9 25 27 34 31 15 2 -8 -2 -19 -10 -24z m135
14 c6 -33 8 -30 -26 -38 -25 -7 -27 -5 -27 23 0 28 6 34 41 41 4 0 9 -11 12
-26z m-1578 -5 c28 -12 30 -23 15 -64 -10 -25 -14 -26 -56 -21 -25 2 -47 7
-50 10 -9 9 36 87 51 87 8 0 26 -5 40 -12z m1785 -29 c12 -23 19 -43 16 -46
-3 -3 -25 -8 -50 -10 -42 -5 -46 -4 -56 21 -15 40 -13 52 13 64 40 19 56 14
77 -29z m-1554 23 c15 -10 28 -52 15 -52 -25 0 -41 14 -41 36 0 25 7 29 26 16z
m102 -28 c-10 -10 -28 6 -28 24 0 15 1 15 17 -1 9 -9 14 -19 11 -23z m1063 3
c-16 -16 -26 0 -10 19 9 11 15 12 17 4 2 -6 -1 -17 -7 -23z m109 9 c0 -22 -16
-36 -41 -36 -13 0 0 42 15 52 19 13 26 9 26 -16z m-2020 0 c41 -6 74 -16 73
-21 -1 -6 -28 -42 -60 -82 l-58 -72 -85 0 c-47 1 -109 4 -138 7 l-53 7 97 88
c108 96 101 93 224 73z m2964 -73 l97 -88 -53 -7 c-29 -3 -91 -6 -138 -7 l-85
0 -58 72 c-32 40 -59 76 -60 82 -1 5 30 15 68 21 128 21 121 23 229 -73z
m-2343 59 c4 -4 5 -22 2 -40 -5 -33 -7 -34 -42 -27 -20 4 -38 8 -40 10 -2 2 0
21 3 41 7 34 9 36 39 30 17 -4 34 -10 38 -14z m1575 -17 c3 -20 5 -38 3 -40
-2 -2 -21 -6 -41 -10 -34 -6 -38 -5 -38 13 0 11 -3 27 -6 36 -4 11 2 19 17 25
45 18 58 13 65 -24z m-1390 17 c14 -10 26 -42 15 -42 -23 0 -41 14 -41 31 0
20 8 24 26 11z m84 -13 c0 -6 -4 -7 -10 -4 -5 3 -10 11 -10 16 0 6 5 7 10 4 6
-3 10 -11 10 -16z m975 2 c-3 -6 -11 -11 -17 -11 -6 0 -6 6 2 15 14 17 26 13
15 -4z m95 0 c0 -17 -18 -31 -41 -31 -11 0 1 32 15 42 18 13 26 9 26 -11z
m-1775 -6 c80 -12 78 -9 32 -82 l-42 -66 -100 2 c-55 1 -100 3 -101 4 -1 1 27
37 62 80 52 62 69 76 87 73 12 -3 40 -8 62 -11z m489 5 c20 -7 26 -16 26 -40
0 -24 -4 -30 -22 -30 -38 0 -49 13 -42 48 4 18 8 32 10 32 1 0 14 -4 28 -10z
m1429 -22 c5 -36 -5 -48 -40 -48 -19 0 -23 5 -23 30 0 22 6 33 23 40 33 13 34
13 40 -22z m605 -51 l63 -76 -102 -3 -102 -3 -42 65 c-23 36 -41 67 -38 70 5
6 135 29 148 26 5 -2 38 -37 73 -79z m-1844 57 c22 -21 20 -33 -3 -27 -11 3
-21 13 -24 24 -6 23 6 25 27 3z m1039 -3 c-3 -11 -13 -21 -24 -24 -23 -6 -25
6 -3 27 21 22 33 20 27 -3z m-1132 -28 c12 -33 13 -33 -21 -33 -27 0 -30 3
-30 34 0 30 3 33 21 29 11 -3 25 -17 30 -30z m1249 2 c0 -32 -2 -35 -31 -35
-24 0 -30 3 -25 16 3 9 6 20 6 25 0 8 26 23 48 28 1 1 2 -15 2 -34z m-1639 6
c15 -5 14 -12 -9 -63 l-25 -58 -72 0 c-39 0 -74 3 -77 6 -4 3 12 35 34 70 l41
65 46 -7 c25 -4 53 -10 62 -13z m2127 -45 c22 -36 38 -67 34 -70 -3 -3 -38 -6
-77 -6 l-72 0 -26 58 c-13 31 -23 58 -22 60 3 3 84 19 106 21 10 1 33 -24 57
-63z m-1587 38 c12 -14 11 -16 -5 -13 -11 2 -21 10 -24 17 -5 17 13 15 29 -4z
m927 4 c-3 -7 -13 -15 -24 -17 -16 -3 -17 -1 -5 13 16 19 34 21 29 4z m-1347
-17 c13 -5 13 -12 1 -53 l-13 -48 -64 0 -65 0 25 56 c14 31 25 58 25 61 0 5
68 -7 91 -16z m327 7 c20 -20 14 -38 -13 -38 -20 0 -25 5 -25 25 0 27 18 33
38 13z m1122 -13 c0 -20 -5 -25 -25 -25 -27 0 -33 18 -13 38 20 20 38 14 38
-13z m380 21 c0 -2 11 -29 25 -60 l25 -56 -65 0 -64 0 -14 48 c-7 26 -12 49
-10 51 6 8 103 24 103 17z m-4480 -26 c80 -5 235 -14 345 -21 110 -6 244 -14
299 -17 l99 -7 -169 -89 c-353 -185 -635 -338 -630 -343 2 -2 125 60 273 140
147 79 333 178 413 219 l145 74 190 -8 c105 -5 237 -12 295 -16 l105 -7 -238
-168 c-131 -92 -244 -170 -250 -172 -35 -12 -865 -78 -913 -72 -23 2 -48 1
-55 -4 -8 -4 -138 -14 -289 -23 -151 -9 -324 -19 -385 -22 -166 -10 -825 -20
-825 -13 0 4 8 9 18 12 9 3 103 43 207 90 227 100 582 246 910 373 184 71 248
92 275 88 19 -2 100 -8 180 -14z m3042 -4 c13 -18 9 -26 -11 -26 -17 0 -31 18
-31 41 0 11 32 -1 42 -15z m73 13 c11 -17 -1 -21 -15 -4 -8 9 -8 15 -2 15 6 0
14 -5 17 -11z m825 -4 c-7 -9 -15 -13 -17 -11 -7 7 7 26 19 26 6 0 6 -6 -2
-15z m95 -14 c-6 -19 -45 -31 -45 -13 0 13 14 29 30 34 20 7 23 3 15 -21z
m3412 -47 c291 -111 738 -294 956 -391 106 -46 200 -87 210 -90 9 -3 17 -8 17
-12 0 -7 -672 3 -830 13 -58 3 -229 13 -380 22 -151 9 -281 19 -289 23 -7 5
-32 6 -55 4 -48 -6 -878 60 -913 72 -7 2 -118 79 -248 171 -130 91 -238 164
-241 162 -2 -3 76 -61 173 -130 98 -69 199 -140 225 -158 26 -19 46 -36 43
-38 -2 -3 -132 8 -289 23 l-284 28 -146 135 c-81 74 -145 136 -144 137 2 2
107 5 233 9 127 3 322 10 435 16 381 18 338 23 486 -55 71 -37 254 -135 407
-217 154 -82 281 -147 284 -145 2 3 -6 11 -19 18 -12 6 -147 78 -298 159 -151
81 -322 171 -380 201 l-105 54 105 7 c58 4 229 14 380 23 235 14 436 29 462
34 4 0 96 -33 205 -75z m-4687 50 c3 -1 4 -21 2 -43 l-4 -41 -53 0 -53 0 9 38
c17 65 16 63 56 56 21 -4 40 -8 43 -10z m1613 -31 l14 -48 -50 -3 c-27 -2 -51
-2 -52 0 -2 2 -5 21 -7 43 -3 37 -1 40 27 46 17 4 35 7 42 8 7 0 19 -20 26
-46z m-1269 11 c3 -9 -2 -14 -14 -14 -11 0 -20 2 -20 4 0 2 -3 11 -6 19 -4 12
0 14 15 10 11 -3 22 -11 25 -19z m870 2 c-3 -9 -15 -16 -25 -16 -23 0 -15 27
9 33 22 4 24 3 16 -17z m-1126 -28 l3 -38 -40 0 c-43 0 -48 8 -35 58 5 19 12
23 38 20 28 -3 31 -7 34 -40z m1416 20 c13 -50 8 -58 -34 -58 -39 0 -40 1 -40
33 0 41 5 47 41 47 19 0 28 -6 33 -22z m-1347 4 c6 -4 15 -20 18 -35 7 -26 5
-27 -29 -27 -34 0 -36 1 -36 35 0 35 18 46 47 27z m234 -8 c12 -14 11 -16 -5
-13 -11 2 -21 10 -24 17 -5 17 13 15 29 -4z m767 4 c-3 -7 -13 -15 -24 -17
-16 -3 -17 -1 -5 13 16 19 34 21 29 4z m252 -23 c0 -33 -2 -35 -35 -35 -28 0
-35 4 -35 19 0 11 7 27 16 35 8 9 24 16 35 16 15 0 19 -7 19 -35z m-1178 13
c8 -7 18 -21 21 -30 5 -15 0 -18 -28 -18 -32 0 -35 2 -35 30 0 32 15 39 42 18z
m214 -16 c-4 -3 -14 2 -24 12 -16 18 -16 18 6 6 13 -6 21 -14 18 -18z m654 13
c-7 -8 -18 -15 -24 -15 -6 0 -2 7 8 15 25 19 32 19 16 0z m230 -15 c0 -28 -3
-30 -35 -30 -28 0 -33 3 -28 18 16 46 63 56 63 12z m-1018 -4 c14 -20 8 -27
-19 -24 -21 2 -29 9 -31 26 -3 21 -1 23 20 17 13 -4 26 -13 30 -19z m946 2
c-2 -17 -11 -24 -30 -26 -37 -4 -35 27 2 41 27 10 31 7 28 -15z m-894 -4 c21
-21 20 -24 -8 -24 -15 0 -26 7 -29 20 -6 24 15 27 37 4z m829 -4 c-3 -13 -14
-20 -29 -20 -28 0 -29 3 -8 24 22 23 43 20 37 -4z m-741 -4 c31 -2 45 -12 34
-23 -4 -4 -16 -2 -26 5 -11 7 -20 8 -20 3 0 -13 -37 -1 -52 17 -11 13 -10 15
12 8 14 -4 37 -8 52 -10z m679 0 c-14 -17 -51 -28 -51 -15 0 5 -9 4 -20 -3
-10 -7 -23 -9 -27 -5 -10 11 18 28 38 23 9 -2 23 0 30 5 8 5 20 9 28 9 10 0
11 -3 2 -14z m-2103 -11 c1 -1 -63 -63 -144 -137 l-146 -135 -284 -28 c-157
-15 -287 -26 -289 -23 -3 2 101 79 231 171 l236 166 197 -6 c108 -3 197 -7
199 -8z m290 -23 c-7 -9 -46 -57 -87 -107 -40 -49 -74 -91 -75 -92 -3 -4 -369
-44 -378 -41 -6 2 53 62 131 133 l141 130 141 -3 c130 -3 140 -4 127 -20z
m1212 18 c0 -5 -7 -7 -15 -4 -8 4 -15 8 -15 10 0 2 7 4 15 4 8 0 15 -4 15 -10z
m490 6 c0 -2 -7 -6 -15 -10 -8 -3 -15 -1 -15 4 0 6 7 10 15 10 8 0 15 -2 15
-4z m1591 -131 c78 -71 137 -131 131 -133 -9 -3 -375 37 -378 41 -1 1 -40 49
-88 107 l-86 105 132 5 c73 3 136 6 140 5 4 0 71 -58 149 -130z m-3063 111 c4
-4 -86 -148 -101 -162 -12 -12 -267 -45 -267 -35 0 3 39 53 86 110 l86 104 97
-7 c53 -4 97 -9 99 -10z m2707 -88 c47 -57 85 -105 85 -109 0 -8 -254 22 -266
32 -11 9 -104 155 -104 164 0 4 66 10 147 13 l53 2 85 -102z m-2528 80 c-3 -7
-17 -41 -32 -74 l-27 -62 -95 -12 c-52 -6 -97 -9 -100 -7 -2 3 8 25 23 49 15
23 38 60 51 81 l23 37 81 0 c61 0 80 -3 76 -12z m143 1 c0 -6 -7 -35 -15 -63
l-15 -53 -75 -9 c-41 -5 -75 -7 -75 -4 0 3 12 35 27 72 l28 68 63 0 c38 0 62
-4 62 -11z m120 -13 c0 -13 -3 -37 -6 -54 -6 -29 -10 -31 -61 -38 -29 -3 -56
-4 -59 -1 -5 4 8 64 21 105 3 7 23 12 55 12 46 0 50 -2 50 -24z m84 18 c11 -4
16 -19 16 -44 0 -45 -2 -47 -55 -51 l-40 -4 3 35 c5 57 12 70 37 70 13 0 30
-3 39 -6z m1440 -11 c3 -10 6 -34 8 -53 l3 -35 -40 4 c-22 1 -43 5 -47 8 -13
7 -9 81 5 86 29 12 66 7 71 -10z m133 -42 c8 -29 12 -56 9 -58 -3 -3 -30 -2
-59 1 -51 7 -55 9 -61 38 -3 17 -6 41 -6 55 0 23 3 24 52 21 l52 -3 13 -54z
m156 -9 c15 -37 27 -69 27 -72 0 -3 -34 -1 -75 4 l-75 9 -15 53 c-8 28 -15 57
-15 63 0 7 24 11 63 11 l62 0 28 -68z m199 -15 c27 -44 47 -81 45 -84 -3 -2
-48 1 -100 7 l-95 12 -27 62 c-15 33 -29 67 -32 74 -4 10 13 12 77 10 l83 -3
49 -78z m-1814 37 c3 -26 -1 -33 -20 -38 -50 -13 -58 -8 -58 35 l0 40 38 -3
c33 -3 37 -6 40 -34z m83 10 c12 -32 12 -31 -31 -36 -33 -3 -35 -1 -38 30 -3
30 -1 32 28 32 24 0 33 -6 41 -26z m72 4 c4 -12 5 -23 4 -24 -10 -7 -57 -13
-57 -7 0 5 -3 18 -6 31 -6 19 -3 22 24 22 22 0 31 -5 35 -22z m127 7 c18 -21
-20 -28 -43 -8 -18 16 -20 16 -14 2 9 -25 -41 -32 -53 -8 -6 10 -10 20 -10 23
0 11 109 4 120 -9z m58 -2 c6 -19 -35 -16 -42 3 -4 11 0 15 16 12 12 -2 23 -9
26 -15z m57 7 c3 -5 -3 -10 -14 -10 -11 0 -23 5 -26 10 -3 6 3 10 14 10 11 0
23 -4 26 -10z m42 4 c-3 -3 -12 -4 -19 -1 -8 3 -5 6 6 6 11 1 17 -2 13 -5z
m290 0 c-3 -3 -12 -4 -19 -1 -8 3 -5 6 6 6 11 1 17 -2 13 -5z m58 -4 c-3 -5
-15 -10 -26 -10 -11 0 -17 5 -14 10 3 6 15 10 26 10 11 0 17 -4 14 -10z m55
-5 c-13 -16 -40 -20 -40 -7 0 14 12 22 33 22 16 0 17 -3 7 -15z m140 9 c0 -3
-4 -13 -10 -23 -12 -24 -62 -17 -53 8 6 14 4 14 -14 -2 -23 -20 -61 -13 -43 8
11 13 120 20 120 9z m70 -1 c0 -5 -3 -18 -6 -30 -5 -19 -11 -22 -33 -16 -33 7
-31 5 -24 31 4 16 13 22 34 22 16 0 29 -3 29 -7z m78 -25 c-3 -31 -5 -33 -38
-30 -43 5 -43 4 -31 36 8 20 17 26 41 26 29 0 31 -2 28 -32z m92 -8 c0 -42 -8
-47 -57 -34 -17 5 -23 14 -23 33 0 36 6 41 47 41 32 0 33 -1 33 -40z m-690 20
c0 -5 -4 -10 -9 -10 -6 0 -13 5 -16 10 -3 6 1 10 9 10 9 0 16 -4 16 -10z m105
0 c-3 -5 -10 -10 -16 -10 -5 0 -9 5 -9 10 0 6 7 10 16 10 8 0 12 -4 9 -10z
m-145 -8 c0 -14 -73 -31 -92 -21 -13 7 -16 6 -12 -5 8 -21 -27 -26 -50 -7 -17
15 -18 14 -15 -4 5 -26 -32 -33 -51 -10 -23 28 9 37 142 39 20 0 34 4 32 8 -3
4 6 8 20 8 14 0 26 -3 26 -8z m206 0 c-2 -4 12 -8 32 -8 133 -2 165 -11 142
-39 -19 -23 -56 -16 -51 10 3 18 2 19 -15 4 -23 -19 -58 -14 -50 7 4 11 1 12
-12 5 -11 -6 -31 -5 -55 2 -43 14 -49 27 -11 27 14 0 23 -4 20 -8z m-114 -14
c-9 -9 -15 -9 -24 0 -9 9 -7 12 12 12 19 0 21 -3 12 -12z m-42 -8 c12 -8 12
-10 -3 -16 -22 -8 -50 3 -42 16 8 12 25 13 45 0z m105 0 c8 -13 -20 -24 -42
-16 -15 6 -15 8 -3 16 20 13 37 12 45 0z m-390 -22 c15 -22 14 -24 -12 -35
-25 -10 -29 -9 -41 14 -12 22 -12 27 0 34 21 14 36 10 53 -13z m693 7 c2 -2
-2 -14 -10 -28 -12 -23 -16 -24 -41 -14 -26 12 -27 13 -11 35 11 17 21 21 37
16 12 -3 23 -8 25 -9z m-763 -24 c14 -29 14 -29 -17 -40 -36 -13 -44 -8 -53
31 -5 20 -3 27 12 31 36 9 43 7 58 -22z m304 20 c11 -7 9 -11 -8 -21 -17 -9
-26 -9 -37 0 -27 23 12 42 45 21z m215 0 c3 -5 -1 -14 -8 -21 -11 -9 -20 -9
-37 0 -17 10 -19 14 -8 21 18 11 46 11 53 0z m304 3 c19 -6 22 -11 17 -33 -9
-38 -18 -43 -53 -30 -31 11 -31 11 -17 40 17 31 18 32 53 23z m-908 -30 c16
-42 12 -53 -25 -60 -20 -3 -38 -5 -40 -3 -2 2 -6 21 -10 41 -7 34 -5 37 22 41
15 2 31 5 36 6 4 0 12 -11 17 -25z m335 -14 c-11 -18 -46 -18 -55 0 -13 25
-13 28 8 33 18 4 54 -21 47 -33z m183 24 c43 -17 49 -29 20 -48 -23 -14 -53
11 -37 30 14 17 -2 19 -19 2 -9 -9 -15 -9 -24 0 -17 17 -33 15 -19 -2 16 -19
-14 -44 -37 -30 -28 18 -24 31 15 47 50 20 50 20 101 1z m152 -3 c0 -4 -6 -14
-12 -23 -10 -12 -19 -14 -37 -7 -23 9 -23 10 -7 28 16 17 56 19 56 2z m332 9
c18 0 19 -4 13 -37 -4 -21 -8 -40 -10 -42 -10 -9 -75 11 -75 24 0 32 20 67 36
61 9 -3 25 -6 36 -6z m-1088 -52 c4 -21 6 -38 4 -38 -2 0 -24 -7 -50 -15 l-48
-14 0 54 0 54 38 3 c46 4 48 2 56 -44z m1206 -14 l0 -53 -47 14 c-27 8 -49 15
-51 15 -3 0 9 72 14 80 1 3 21 4 43 2 l41 -4 0 -54z m-855 36 c20 -22 20 -22
-13 -39 -20 -11 -26 -10 -38 6 -24 32 -18 43 27 52 3 0 14 -8 24 -19z m466 10
c13 0 10 -22 -5 -43 -12 -16 -18 -17 -38 -6 -33 17 -33 17 -13 39 10 12 25 18
33 15 7 -3 18 -5 23 -5z m-927 -22 c3 -13 6 -35 6 -50 0 -25 -6 -29 -56 -44
-30 -9 -58 -13 -61 -10 -3 3 -2 30 1 60 8 58 13 63 72 65 25 1 33 -4 38 -21z
m1413 16 c18 -5 23 -16 29 -60 3 -30 4 -57 1 -60 -3 -3 -31 2 -62 10 l-56 17
2 49 c3 49 3 50 33 50 17 0 41 -3 53 -6z m-1531 -26 c-3 -13 -6 -36 -6 -53 0
-16 -4 -36 -8 -43 -8 -11 -142 -56 -149 -49 -4 5 33 137 41 145 6 5 62 16 115
21 9 1 11 -6 7 -21z m508 0 c21 -30 20 -33 -9 -46 -36 -17 -40 -15 -53 13 -17
36 -15 43 11 48 12 2 25 5 29 6 4 0 14 -9 22 -21z m625 6 c6 -6 -21 -64 -30
-64 -13 0 -59 23 -59 29 0 4 7 17 16 29 12 17 21 21 42 16 15 -4 29 -8 31 -10z
m538 0 c18 -3 26 -17 39 -62 8 -31 18 -65 21 -75 4 -15 1 -18 -14 -14 -10 3
-44 13 -75 22 -62 18 -61 16 -73 103 l-5 42 42 -5 c24 -4 53 -8 65 -11z m-973
-12 c15 -18 15 -19 -11 -31 -23 -11 -29 -9 -47 9 -18 18 -19 22 -6 30 23 15
45 12 64 -8z m111 2 l25 -16 -26 -20 c-23 -19 -26 -19 -43 -4 -27 25 -37 19
-13 -7 l22 -23 -29 -22 -29 -21 -23 25 c-12 13 -20 27 -16 30 7 8 100 73 105
73 1 1 14 -6 27 -15z m125 6 c13 -8 12 -12 -6 -30 -18 -18 -24 -20 -47 -9 -26
12 -26 13 -11 31 19 20 41 23 64 8z m-1094 -77 l-22 -78 -94 -26 c-52 -15 -96
-25 -98 -24 -3 2 65 170 73 183 2 3 110 19 141 21 l21 1 -21 -77z m593 46 c6
-18 11 -33 11 -35 0 -5 -58 -34 -68 -34 -5 0 -14 18 -20 40 -10 39 -9 40 22
49 17 5 34 10 38 10 3 1 11 -13 17 -30z m767 16 c20 -5 21 -9 12 -45 -6 -22
-15 -40 -20 -40 -10 0 -68 29 -68 34 0 2 5 17 11 35 8 22 16 30 28 27 9 -2 26
-7 37 -11z m634 -1 c33 -5 37 -10 67 -82 18 -42 35 -85 39 -94 5 -15 -5 -14
-88 8 -51 14 -96 29 -99 32 -4 4 -16 40 -28 81 l-20 73 47 -6 c26 -4 63 -9 82
-12z m-2150 -7 c0 -11 -74 -174 -83 -184 -13 -12 -248 -76 -255 -68 -3 3 123
220 132 226 1 1 175 26 194 28 6 0 12 0 12 -2z m942 -14 c25 -22 23 -30 -11
-47 -28 -15 -30 -14 -45 9 -21 31 -20 42 2 48 30 8 35 7 54 -10z m366 11 c26
-7 27 -16 6 -49 -15 -23 -17 -24 -45 -9 -34 17 -35 21 -12 46 18 20 19 20 51
12z m1007 -9 c33 -4 67 -9 76 -11 16 -4 155 -221 147 -229 -7 -8 -242 56 -255
68 -10 10 -83 173 -83 185 0 2 12 1 28 -2 15 -3 54 -8 87 -11z m-1656 -26 c6
-18 11 -36 11 -40 0 -10 -80 -53 -86 -46 -2 2 -8 24 -13 50 -8 44 -7 47 18 56
45 16 58 13 70 -20z m531 11 l25 -19 -24 -25 -23 -25 -29 21 -29 22 22 23 c26
28 26 28 58 3z m417 10 c30 -11 30 -12 22 -57 -5 -26 -11 -48 -13 -50 -2 -3
-23 5 -46 17 -39 20 -41 23 -34 53 11 53 16 56 71 37z m-1899 -127 c-39 -65
-72 -119 -72 -120 -2 -4 -376 -99 -376 -95 0 10 233 294 244 298 14 5 208 31
248 33 27 1 27 0 -44 -116z m856 51 l6 -42 -49 -21 c-28 -11 -54 -21 -60 -21
-7 0 -11 24 -11 59 l0 60 48 14 c53 15 56 13 66 -49z m309 36 l18 -30 -33 -20
c-18 -11 -35 -20 -38 -20 -7 0 -33 70 -28 74 11 10 45 25 53 26 6 0 19 -13 28
-30z m510 19 c12 -7 24 -13 25 -15 5 -4 -21 -74 -28 -74 -3 0 -20 9 -38 20
-32 20 -32 20 -17 50 17 33 26 36 58 19z m325 -8 l42 -12 0 -59 c0 -36 -4 -60
-11 -60 -6 0 -33 10 -60 21 -49 21 -49 22 -43 58 9 54 15 72 22 67 4 -2 26 -9
50 -15z m860 3 c69 -8 129 -17 133 -20 10 -6 239 -290 239 -296 0 -4 -374 91
-376 95 0 1 -33 55 -72 120 -39 64 -67 117 -61 117 6 0 67 -7 137 -16z m-1548
-65 c0 -7 -61 -52 -64 -47 -1 1 -12 17 -24 35 l-22 31 33 21 32 21 22 -28 c13
-15 23 -30 23 -33z m247 33 l22 -14 -22 -34 c-12 -18 -24 -34 -27 -34 -3 1
-18 11 -34 24 l-29 24 22 31 c13 18 27 28 34 24 7 -3 22 -13 34 -21z m-1794 6
c-71 -92 -238 -295 -247 -299 -16 -10 -548 -140 -556 -137 -7 3 365 360 403
387 12 8 97 23 211 36 105 13 193 23 195 24 2 1 -1 -5 -6 -11z m1317 -28 l20
-40 -41 -26 c-22 -14 -44 -23 -47 -19 -7 6 -33 89 -29 90 1 0 18 8 37 17 19 9
36 17 37 17 2 1 12 -17 23 -39z m340 15 l24 -25 -21 -28 c-11 -15 -26 -27 -33
-27 -7 0 -22 12 -33 27 l-21 28 24 25 c13 14 26 25 30 25 4 0 17 -11 30 -25z
m377 -10 c4 -2 -23 -84 -29 -91 -4 -4 -26 5 -48 20 l-40 26 20 40 20 40 38
-17 c20 -10 38 -18 39 -18z m1445 5 c126 -14 162 -22 183 -39 56 -43 402 -376
395 -379 -9 -3 -539 127 -556 137 -9 4 -200 236 -245 296 -9 12 -14 12 223
-15z m-2512 -41 l0 -60 -65 -30 c-35 -16 -68 -29 -73 -29 -4 0 -3 34 2 75 l9
75 46 14 c80 24 81 24 81 -45z m1394 46 l53 -15 9 -75 c5 -41 6 -75 2 -75 -5
0 -38 13 -73 29 l-65 30 0 60 c0 38 4 61 11 61 6 0 35 -7 63 -15z m-1543 -94
c-5 -41 -13 -77 -18 -81 -11 -11 -174 -82 -178 -78 -1 2 9 46 24 98 l26 94 75
22 c41 12 76 21 77 19 2 -1 -1 -34 -6 -74z m403 27 c8 -29 12 -54 8 -56 -4 -1
-27 -16 -52 -32 l-45 -30 -6 28 c-4 15 -9 43 -12 63 -5 35 -4 37 41 57 26 11
48 20 49 21 1 1 8 -23 17 -51z m237 5 c16 -28 15 -28 -22 -61 l-38 -33 -20 40
c-27 52 -27 55 11 79 35 23 44 19 69 -25z m436 0 c2 -6 -5 -30 -17 -53 l-22
-42 -36 33 c-20 19 -38 34 -39 35 -1 0 9 17 23 37 l25 38 31 -18 c16 -10 32
-23 35 -30z m246 -32 c-3 -20 -8 -48 -12 -63 l-6 -28 -45 30 c-25 16 -48 31
-53 33 -4 1 0 25 8 54 l15 51 49 -21 c48 -20 49 -21 44 -56z m439 30 c3 -3 18
-48 32 -99 29 -108 36 -104 -89 -47 -81 37 -75 28 -90 147 l-6 47 73 -21 c40
-11 76 -23 80 -27z m-3098 -63 c-60 -56 -157 -149 -215 -206 l-106 -103 -254
-60 c-289 -68 -651 -149 -669 -149 -22 0 744 560 769 561 9 0 133 13 276 28
143 16 271 29 284 30 19 1 2 -20 -85 -101z m4526 67 c253 -25 255 -26 300 -57
258 -183 712 -519 707 -525 -5 -5 -313 62 -665 146 l-252 59 -178 170 c-97 93
-195 185 -217 206 l-40 37 45 -5 c25 -3 160 -17 300 -31z m-2414 -11 l23 -29
-33 -40 -33 -39 -28 42 -28 43 28 29 c34 35 40 34 71 -6z m139 6 l28 -29 -27
-41 c-14 -22 -28 -40 -30 -40 -3 0 -18 18 -35 39 l-31 39 26 31 c14 17 29 31
33 31 4 0 20 -13 36 -30z m-1077 -12 c-3 -7 -15 -52 -28 -99 -19 -73 -27 -89
-49 -99 -14 -7 -72 -32 -128 -55 -77 -33 -100 -39 -95 -27 3 10 27 67 53 127
l48 110 93 27 c110 31 112 32 106 16z m456 -69 l7 -46 -65 -41 c-74 -47 -76
-45 -76 53 l0 62 58 25 c65 29 64 29 76 -53z m1162 31 c6 0 4 -113 -2 -137 -6
-20 -8 -20 -71 20 -71 44 -68 34 -47 139 l5 27 56 -24 c30 -14 57 -25 59 -25z
m452 16 l73 -21 48 -110 c26 -60 50 -117 53 -127 5 -12 -18 -6 -95 27 -167 70
-152 57 -176 149 -12 44 -25 89 -27 99 -6 20 -5 20 124 -17z m-1358 -23 l19
-43 -45 -36 c-24 -20 -42 -39 -40 -42 3 -2 24 12 48 32 l42 37 29 -56 28 -56
-30 -37 c-16 -20 -40 -48 -54 -61 l-26 -23 -10 38 c-6 22 -24 82 -41 134 -16
52 -30 99 -30 105 0 14 62 55 78 52 7 -1 22 -21 32 -44z m595 25 c40 -27 40
-24 19 -94 l-16 -55 -49 42 c-41 34 -47 44 -39 59 6 10 14 30 20 44 12 32 21
32 65 4z m-3005 8 c0 -3 -73 -58 -162 -122 -90 -65 -264 -193 -388 -285 -156
-115 -236 -168 -260 -172 -19 -3 -168 -33 -330 -66 -442 -90 -1075 -199 -1087
-187 -12 12 739 460 1162 694 l110 61 140 11 c405 31 762 61 775 64 24 6 40 6
40 2z m5645 -26 c132 -11 332 -27 445 -35 l205 -16 110 -61 c434 -240 1174
-682 1162 -694 -12 -12 -645 97 -1087 187 -162 33 -311 63 -330 66 -24 4 -99
53 -240 158 -113 83 -287 211 -387 284 -101 73 -183 135 -183 137 0 3 15 2 33
-1 17 -3 140 -14 272 -25z m-3089 -30 l27 -40 -37 -45 c-21 -25 -41 -45 -45
-45 -4 0 -18 25 -30 56 l-24 55 34 29 c19 16 37 29 41 30 4 0 20 -18 34 -40z
m303 10 l34 -29 -24 -55 c-12 -31 -26 -56 -30 -56 -4 0 -24 20 -45 45 l-37 45
27 40 c14 22 30 40 34 40 4 -1 22 -14 41 -30z m-150 -16 c31 -34 31 -36 15
-63 -9 -15 -25 -38 -35 -52 l-19 -24 -19 24 c-10 14 -26 37 -35 52 -16 27 -16
29 15 63 17 20 35 36 39 36 4 0 22 -16 39 -36z m-1232 14 c-62 -157 -104 -241
-127 -253 -55 -28 -323 -136 -327 -131 -3 3 38 77 91 165 l96 160 53 14 c28 8
84 24 122 35 85 24 99 26 92 10z m531 -69 l-3 -82 -79 -49 c-43 -27 -81 -47
-83 -44 -3 2 1 47 7 99 l12 95 67 31 c36 16 70 30 74 30 4 1 7 -36 5 -80z
m1401 50 l69 -31 12 -95 c6 -52 10 -97 7 -99 -2 -3 -40 17 -83 44 l-79 49 -3
82 c-2 44 0 81 3 81 2 0 36 -14 74 -31z m539 10 c43 -12 101 -28 130 -36 l52
-14 96 -161 c52 -88 93 -162 91 -164 -4 -5 -274 104 -327 131 -23 12 -72 108
-127 253 -7 16 -4 16 85 -9z m-1645 -46 l17 -58 -58 -52 c-65 -59 -66 -59 -78
46 l-6 59 48 31 c27 17 52 31 55 31 3 0 13 -26 22 -57z m817 22 l42 -27 -6
-60 c-12 -104 -13 -104 -79 -45 l-58 52 17 58 c19 63 18 63 84 22z m-4110 0
c0 -2 -19 -14 -42 -26 -159 -80 -835 -477 -1098 -644 l-146 -93 -129 -16 c-72
-8 -170 -20 -220 -26 -143 -18 -558 -24 -645 -11 -100 16 -177 51 -186 85 -29
118 190 288 711 551 l241 122 304 7 c405 9 1063 39 1198 55 6 0 12 -1 12 -4z
m7685 -20 c345 -18 829 -35 1011 -35 l132 0 243 -123 c134 -68 291 -152 349
-187 293 -177 414 -307 356 -382 -20 -27 -94 -56 -177 -69 -86 -13 -501 -7
-644 11 -49 6 -148 18 -219 26 l-128 16 -216 135 c-239 149 -650 391 -897 528
-88 49 -164 93 -170 97 -6 5 7 7 30 4 22 -3 171 -13 330 -21z m-3717 -48 l24
-25 -23 -71 -23 -71 -24 23 c-13 12 -37 39 -53 59 l-30 37 28 55 27 55 25 -19
c14 -10 37 -29 49 -43z m-1132 26 c-2 -10 -8 -53 -12 -95 -3 -43 -11 -84 -18
-91 -15 -19 -217 -140 -222 -134 -8 7 57 241 69 254 11 11 163 81 180 82 5 1
6 -7 3 -16z m1736 -19 c45 -19 88 -41 95 -47 12 -13 77 -247 69 -254 -5 -6
-207 115 -222 134 -7 7 -15 48 -18 91 -4 42 -10 85 -12 95 -3 9 -3 17 -1 17 3
0 43 -16 89 -36z m-2404 4 c-8 -13 -54 -89 -102 -169 l-87 -147 -272 -110
c-149 -61 -272 -110 -274 -109 -1 2 80 106 181 233 l183 231 174 45 c96 25
182 46 193 47 17 1 17 -1 4 -21z m998 -61 c7 -39 11 -74 9 -78 -2 -3 -38 -34
-80 -68 l-75 -62 0 104 0 105 63 39 c34 22 64 38 66 36 3 -2 10 -36 17 -76z
m454 33 l32 -50 -43 -66 -43 -66 -32 63 c-18 35 -33 69 -34 75 0 13 68 94 80
94 4 0 22 -23 40 -50z m166 4 l38 -45 -35 -71 -35 -70 -43 66 -43 66 32 50
c18 27 36 50 40 50 5 0 26 -21 46 -46z m514 -141 l0 -104 -75 62 c-42 34 -78
65 -79 68 -4 6 12 127 19 148 3 9 26 -1 70 -28 l65 -41 0 -105z m1038 140
l185 -47 151 -190 c213 -269 221 -279 210 -275 -6 2 -131 53 -277 113 l-267
108 -87 147 c-47 80 -93 156 -101 169 -8 12 -11 22 -6 22 4 0 91 -21 192 -47z
m-1987 -130 l11 -42 -63 -70 c-35 -39 -67 -71 -71 -71 -5 0 -32 158 -33 191 0
3 27 29 60 57 l60 51 13 -37 c7 -20 18 -56 23 -79z m774 8 c-1 -29 -29 -191
-34 -191 -9 0 -131 137 -131 147 0 4 10 40 21 80 l22 72 61 -51 c33 -28 61
-53 61 -57z m-1499 72 c-6 -24 -42 -158 -56 -210 -10 -40 -15 -45 -158 -129
-81 -48 -157 -94 -169 -102 -20 -12 -17 1 28 109 28 68 64 151 79 184 l27 61
119 51 c65 28 123 52 127 52 5 1 6 -7 3 -16z m2203 -39 l114 -48 27 -61 c15
-33 51 -115 79 -183 l50 -123 -32 19 c-18 11 -94 56 -169 101 -132 78 -138 83
-148 124 -15 56 -50 187 -57 211 -4 13 -1 17 8 14 8 -3 65 -27 128 -54z
m-3239 -201 l-181 -228 -112 -46 c-149 -61 -568 -223 -687 -265 l-95 -34 337
333 337 332 288 71 c158 39 289 70 291 68 2 -1 -78 -105 -178 -231z m1415 142
c5 -67 3 -100 -5 -110 -13 -16 -196 -165 -202 -165 -11 0 25 256 38 270 15 15
144 98 155 99 4 1 10 -42 14 -94z m545 -45 c0 -19 -107 -174 -113 -163 -3 4
-17 48 -31 96 l-27 88 52 61 53 60 32 -64 c18 -34 33 -70 34 -78z m340 80 l52
-60 -27 -82 c-14 -46 -28 -89 -31 -97 -5 -16 -114 133 -114 156 0 11 61 143
66 143 1 0 25 -27 54 -60z m513 15 c41 -25 79 -51 84 -58 10 -12 43 -267 35
-267 -6 0 -189 149 -202 165 -8 10 -10 43 -5 110 4 52 9 95 11 95 2 0 37 -20
77 -45z m1485 -40 l242 -59 338 -333 337 -333 -96 34 c-120 43 -747 285 -776
300 -17 9 -383 458 -383 470 0 4 18 -1 338 -79z m-2179 1 l42 -64 -43 -86
c-23 -47 -45 -86 -48 -86 -3 0 -25 39 -48 86 l-43 86 42 64 c23 35 45 64 49
64 4 0 26 -29 49 -64z m-509 -108 l13 -87 -28 -33 c-15 -18 -56 -63 -90 -100
l-63 -68 -7 136 c-4 74 -6 137 -4 139 2 1 38 30 79 64 50 41 77 57 81 48 4 -6
12 -51 19 -99z m1038 37 c70 -56 66 -42 55 -219 l-6 -107 -62 68 c-34 38 -75
83 -90 102 l-28 33 12 81 c7 45 14 90 17 100 6 20 3 21 102 -58z m-1888 51 c0
-2 -33 -83 -74 -181 l-74 -177 -213 -125 c-118 -69 -234 -136 -258 -150 l-44
-26 34 59 c18 33 86 149 150 258 l117 199 173 73 c168 71 189 78 189 70z
m2819 -74 l163 -69 140 -239 c77 -131 144 -247 150 -257 8 -16 3 -15 -34 6
-23 14 -139 81 -257 150 l-213 125 -74 177 c-41 98 -74 179 -74 182 0 7 24 -2
199 -75z m-2374 -73 c-9 -73 -18 -136 -20 -140 -6 -9 -291 -239 -297 -239 -4
0 38 171 83 335 10 37 19 45 127 111 64 39 118 70 120 69 2 -2 -4 -63 -13
-136z m1952 -3 c4 -2 99 -376 95 -376 -6 0 -291 230 -297 239 -4 7 -35 246
-35 270 0 6 53 -21 118 -61 64 -39 118 -72 119 -72z m-1347 25 l31 -100 -73
-110 c-40 -61 -76 -110 -79 -111 -3 0 -16 59 -28 131 -17 106 -19 133 -9 148
14 19 122 140 125 141 1 0 16 -45 33 -99z m678 -42 c10 -15 8 -42 -9 -148 -12
-72 -25 -131 -28 -131 -3 0 -39 50 -79 111 l-73 111 31 100 31 100 57 -63 c31
-34 63 -70 70 -80z m-3258 -218 l-345 -339 -115 -42 c-495 -180 -1275 -438
-1287 -426 -12 12 578 493 1001 816 l149 114 171 38 c224 49 591 134 686 158
41 10 77 19 80 19 3 0 -150 -152 -340 -338z m5665 261 c116 -27 300 -69 410
-93 l199 -44 196 -149 c418 -321 969 -770 957 -782 -12 -12 -792 246 -1287
426 l-115 42 -345 338 -345 339 60 -14 c33 -8 155 -36 270 -63z m-2891 -240
c-32 -67 -61 -119 -64 -115 -14 16 -81 245 -76 259 3 8 29 48 57 91 l52 76 44
-94 44 -94 -57 -123z m216 233 c28 -41 53 -81 56 -89 5 -14 -62 -243 -76 -259
-3 -4 -32 48 -63 115 l-58 122 43 93 c23 51 44 93 45 93 1 0 25 -34 53 -75z
m-800 -127 l0 -143 -127 -138 c-70 -76 -129 -134 -131 -129 -3 9 37 374 41
378 12 12 213 174 214 174 2 0 3 -64 3 -142z m1420 48 c47 -38 88 -72 92 -75
8 -7 51 -367 46 -383 -2 -5 -61 53 -131 129 l-127 138 0 144 c0 135 1 143 18
130 9 -8 55 -45 102 -83z m-2471 47 c0 -5 -66 -120 -147 -258 l-147 -250 -110
-63 c-135 -78 -716 -402 -722 -402 -5 0 136 187 378 501 l197 256 244 98 c134
54 254 104 268 111 29 15 40 17 39 7z m3689 -109 l263 -107 148 -191 c223
-288 433 -566 428 -566 -6 0 -584 321 -722 402 l-110 63 -147 250 c-81 138
-147 254 -147 259 -1 4 5 6 12 3 6 -3 130 -54 275 -113z m-3137 -60 c-21 -82
-42 -164 -46 -181 -6 -28 -42 -61 -238 -217 -128 -102 -233 -183 -234 -182 -3
3 215 537 222 545 18 17 330 198 333 192 1 -4 -15 -74 -37 -157z m2450 52
l147 -86 92 -228 c51 -125 101 -247 111 -271 11 -24 18 -45 16 -47 -1 -1 -106
80 -233 181 l-230 184 -44 168 c-61 238 -58 221 -29 202 13 -9 90 -55 170
-103z m-1716 -77 l18 -116 -109 -158 -109 -158 -6 94 c-4 52 -7 140 -8 196
l-1 103 92 100 c106 116 94 122 123 -61z m953 61 l92 -100 -1 -98 c-1 -53 -4
-142 -8 -196 l-6 -100 -109 158 -108 158 6 52 c8 59 38 226 41 226 1 0 43 -45
93 -100z m-717 -82 l42 -132 -84 -168 c-46 -92 -86 -168 -90 -168 -3 0 -20 84
-38 188 l-32 188 76 112 c42 61 78 112 80 112 3 0 23 -59 46 -132z m488 14
l72 -109 -32 -187 c-18 -102 -35 -186 -38 -186 -4 0 -44 76 -90 169 l-84 168
42 132 c23 72 46 129 50 127 4 -3 40 -54 80 -114z m-3789 85 c-8 -8 -105 -83
-215 -167 -331 -254 -788 -625 -896 -727 -39 -37 -69 -47 -349 -118 -995 -250
-1148 -81 -420 464 86 64 214 155 285 203 l130 88 170 25 c316 47 631 104
1020 185 154 32 282 58 285 59 2 1 -2 -5 -10 -12z m3545 -107 l59 -120 -59
-180 c-33 -99 -62 -180 -65 -180 -3 0 -32 81 -65 180 l-59 180 59 120 c33 66
62 120 65 120 3 0 32 -54 65 -120z m4110 -24 c243 -44 425 -75 600 -101 l170
-25 130 -88 c319 -214 586 -432 675 -550 82 -109 85 -168 12 -206 -98 -50
-394 -18 -822 89 -280 71 -310 81 -349 118 -108 102 -562 470 -896 727 -110
84 -206 159 -213 165 -7 7 114 -14 270 -46 156 -31 346 -69 423 -83z m-5081
-90 c-19 -172 -24 -198 -45 -224 -37 -46 -374 -399 -378 -396 -2 2 27 129 65
283 l68 280 154 125 c85 69 156 126 157 126 0 0 -9 -87 -21 -194z m1947 69
l154 -125 67 -273 c37 -149 67 -277 65 -282 -2 -10 -323 321 -376 387 -21 26
-26 52 -45 224 -12 107 -21 194 -21 194 1 0 71 -56 156 -125z m-2524 13 c-8
-18 -58 -142 -111 -275 l-98 -242 -106 -83 c-212 -166 -637 -488 -644 -488 -4
0 1 15 11 33 10 17 56 100 101 182 238 431 342 606 373 626 66 42 472 278 480
278 4 1 1 -14 -6 -31z m3181 -94 c119 -70 234 -137 254 -150 30 -19 61 -67
171 -261 212 -373 324 -578 320 -582 -3 -4 -231 167 -559 420 l-191 148 -107
263 c-59 145 -110 269 -113 276 -3 6 -2 12 1 12 4 0 104 -57 224 -126z m-4010
74 c-19 -24 -133 -171 -252 -328 -120 -157 -237 -310 -260 -340 -41 -53 -55
-62 -352 -217 -409 -215 -1014 -511 -1014 -497 0 17 549 611 827 894 l191 195
209 78 c114 42 309 117 433 166 124 49 231 89 239 90 8 1 -1 -17 -21 -41z
m4962 -95 c184 -71 377 -145 429 -164 l93 -34 192 -195 c284 -290 826 -877
826 -894 0 -15 -734 347 -1110 546 l-215 115 -230 301 c-126 165 -259 338
-294 383 -43 55 -58 80 -45 77 10 -3 170 -64 354 -135z m-3290 -5 c0 -62 3
-149 6 -193 l5 -80 -168 -238 c-92 -131 -169 -233 -171 -227 -2 6 8 136 23
288 l28 277 35 40 c101 113 226 245 234 245 4 0 8 -51 8 -112z m1429 -32 l128
-138 28 -284 c15 -157 26 -287 23 -289 -2 -3 -80 102 -172 233 l-167 237 5 80
c3 44 6 131 6 193 0 78 3 113 11 110 6 -2 68 -66 138 -142z m-1145 -122 l34
-189 -131 -258 -132 -258 -7 43 c-4 24 -11 155 -16 292 l-9 250 110 158 c60
88 111 157 113 155 2 -2 19 -89 38 -193z m864 38 l109 -159 -9 -249 c-5 -137
-12 -268 -16 -292 l-7 -43 -132 258 -132 258 29 160 c16 88 32 175 35 193 3
17 7 32 9 32 2 0 53 -71 114 -158z m-572 -73 l57 -176 -93 -277 c-67 -199 -96
-273 -102 -260 -4 11 -30 139 -57 287 l-50 268 86 174 c48 97 90 172 94 168 4
-5 33 -87 65 -184z m323 -426 c-27 -147 -53 -276 -57 -287 -6 -13 -35 61 -102
259 l-93 278 53 161 c29 89 57 172 62 186 9 23 18 9 99 -152 l88 -176 -50
-269z m-1526 360 c-30 -120 -61 -250 -70 -290 l-16 -72 -330 -336 c-181 -185
-331 -334 -333 -332 -4 4 120 334 254 675 l79 204 229 183 c126 101 232 184
235 184 4 1 -18 -97 -48 -216z m2718 33 l232 -184 70 -179 c125 -320 267 -697
263 -700 -2 -2 -151 147 -332 331 l-329 335 -71 291 c-39 159 -69 290 -68 290
2 0 108 -83 235 -184z m-3484 22 c-41 -70 -277 -492 -366 -653 l-83 -150 -117
-85 c-404 -294 -919 -652 -1065 -740 l-38 -23 12 24 c47 88 407 609 677 980
127 175 172 230 200 243 35 17 559 308 718 399 44 26 82 47 83 47 2 0 -7 -19
-21 -42z m4288 -96 c88 -50 258 -144 378 -210 l219 -120 155 -214 c246 -335
637 -902 683 -987 l12 -24 -38 23 c-101 61 -487 325 -739 505 -492 352 -430
297 -526 470 -91 166 -327 585 -367 655 l-27 45 45 -26 c25 -15 117 -67 205
-117z m-3216 -191 c-16 -162 -33 -299 -36 -305 -42 -69 -545 -748 -550 -742
-5 4 85 412 165 752 l38 161 205 216 c112 118 205 215 206 213 1 -1 -11 -134
-28 -295z m2121 60 l184 -194 48 -206 c95 -407 160 -703 155 -707 -2 -3 -61
71 -129 163 -132 177 -409 560 -421 580 -4 7 -19 126 -32 265 -14 139 -28 273
-31 298 l-6 45 24 -25 c14 -14 108 -112 208 -219z m-4577 2 c-278 -288 -394
-412 -587 -628 -88 -98 -177 -196 -196 -217 -28 -31 -69 -53 -200 -109 -395
-170 -685 -260 -842 -262 -64 0 -84 3 -106 20 -118 88 95 378 631 859 l90 81
146 43 c202 59 813 263 1061 354 113 41 207 75 209 75 2 1 -91 -97 -206 -216z
m6992 85 c199 -71 733 -247 907 -298 l147 -43 128 -118 c439 -401 630 -636
621 -760 -5 -64 -36 -83 -136 -82 -157 2 -451 93 -842 262 -138 59 -172 78
-205 114 -22 24 -110 121 -196 217 -189 211 -318 350 -588 629 l-204 211 114
-41 c63 -22 177 -64 254 -91z m-4190 -364 l8 -200 -146 -275 c-288 -544 -292
-551 -295 -521 -2 15 1 92 8 172 17 223 39 484 50 600 6 58 10 112 10 121 0
16 27 56 249 369 l96 135 6 -100 c4 -55 10 -190 14 -301z m1434 142 c89 -126
161 -236 161 -245 0 -9 4 -63 10 -121 11 -116 33 -377 50 -600 7 -80 10 -157
8 -172 -3 -30 -21 1 -296 522 l-145 274 7 176 c13 354 18 422 31 408 7 -7 85
-116 174 -242z m-1129 167 c0 -10 23 -140 51 -290 l51 -273 -101 -283 c-55
-155 -127 -354 -160 -442 -54 -146 -60 -157 -65 -125 -6 34 -15 167 -36 525
-5 94 -13 218 -16 276 l-7 107 134 261 c74 143 137 261 142 261 4 0 7 -8 7
-17z m769 -244 l134 -261 -7 -107 c-3 -58 -11 -182 -16 -276 -21 -359 -30
-491 -36 -525 -6 -32 -10 -24 -60 110 -30 80 -102 279 -161 444 l-106 298 51
272 c29 149 52 279 52 289 0 9 3 17 8 17 4 0 67 -118 141 -261z m-359 -39 l94
-280 -48 -237 c-80 -401 -141 -683 -146 -683 -5 0 -79 342 -153 713 l-41 207
94 280 c52 154 97 280 100 280 3 0 48 -126 100 -280z m-1928 -67 c-66 -169
-141 -368 -168 -441 l-49 -133 -175 -172 c-306 -301 -824 -781 -898 -833 -19
-13 -18 -7 11 58 85 195 603 1211 639 1256 6 6 106 84 222 172 116 88 283 215
371 284 88 68 161 122 163 121 2 -2 -50 -142 -116 -312z m3987 -26 c140 -105
269 -205 287 -222 21 -19 78 -115 155 -260 130 -245 453 -891 506 -1013 29
-65 30 -71 11 -58 -74 52 -579 520 -888 823 l-185 182 -58 158 c-33 87 -108
285 -168 439 -60 155 -109 285 -109 288 0 4 44 -27 98 -69 53 -41 211 -162
351 -268z m-5101 41 c-144 -191 -434 -603 -609 -865 l-188 -282 -133 -82
c-273 -170 -557 -315 -733 -374 -70 -24 -158 -30 -194 -15 -134 55 37 382 476
911 97 117 108 127 171 153 115 49 817 399 1042 520 118 63 218 115 222 115 4
1 -20 -36 -54 -81z m1530 -125 c-26 -115 -75 -326 -107 -469 l-58 -262 -168
-218 c-278 -361 -704 -886 -751 -925 -15 -12 -16 -12 -11 6 4 11 29 94 57 185
69 226 232 709 329 979 l82 224 327 334 c180 184 329 339 330 344 2 5 7 9 11
9 4 0 -14 -93 -41 -207z m2928 55 c82 -84 233 -238 336 -343 l187 -190 80
-222 c151 -419 398 -1170 387 -1180 -12 -12 -479 562 -830 1021 l-99 128 -58
262 c-32 143 -81 354 -107 469 -27 114 -48 207 -47 207 1 0 69 -69 151 -152z
m1579 43 c209 -113 951 -482 1057 -527 63 -26 73 -36 171 -153 368 -444 554
-755 517 -867 -36 -109 -258 -53 -660 166 -91 50 -228 129 -304 178 l-140 87
-201 300 c-195 292 -432 629 -583 829 -42 55 -69 97 -61 94 8 -3 100 -51 204
-107z m-4101 -206 c-7 -77 -25 -291 -39 -475 l-27 -335 -146 -260 c-235 -419
-598 -1022 -609 -1012 -11 12 88 584 189 1092 l71 360 236 321 c130 176 258
351 284 388 27 38 50 66 51 65 2 -2 -3 -67 -10 -144z m2187 -105 c78 -107 197
-269 264 -360 82 -111 124 -177 128 -200 3 -19 33 -168 66 -330 90 -443 199
-1075 187 -1087 -9 -9 -313 493 -541 892 -237 418 -212 358 -225 525 -21 279
-60 745 -65 780 l-5 35 25 -30 c14 -16 88 -118 166 -225z m-1777 -12 c4 -79
14 -242 22 -363 8 -121 17 -274 20 -340 l6 -120 -120 -305 c-169 -432 -429
-1049 -442 -1050 -14 0 8 747 36 1225 l16 260 92 170 c110 201 295 550 327
618 13 26 26 47 30 47 3 0 10 -64 13 -142z m1245 75 c40 -83 191 -368 317
-598 l92 -170 16 -275 c9 -151 19 -322 22 -380 9 -142 20 -830 14 -830 -13 1
-275 622 -441 1049 -133 339 -127 312 -110 543 12 147 28 413 37 596 4 72 10
132 13 132 4 0 22 -30 40 -67z m-780 -329 c38 -186 82 -397 97 -467 l28 -128
-43 -187 c-117 -511 -313 -1263 -326 -1250 -4 4 -60 449 -75 588 -28 275 -43
435 -71 756 l-11 131 109 299 c61 164 134 368 163 451 30 84 55 151 57 150 1
-2 34 -156 72 -343z m405 154 c36 -103 109 -305 162 -449 l96 -262 -11 -126
c-6 -69 -16 -180 -21 -246 -10 -114 -16 -176 -40 -417 -14 -138 -45 -396 -71
-588 -4 -36 -8 -72 -9 -79 0 -37 -21 15 -58 149 -93 330 -186 699 -273 1082
l-43 187 28 128 c37 172 166 803 166 810 0 17 13 -17 74 -189z m-2884 -64
c-133 -251 -412 -807 -498 -993 l-61 -135 -133 -109 c-375 -307 -612 -462
-765 -502 -254 -66 -170 261 240 935 l100 165 281 186 c271 180 601 412 831
584 61 45 111 81 113 80 2 -2 -47 -97 -108 -211z m5705 -215 c122 -85 313
-215 426 -289 l206 -135 100 -165 c350 -577 462 -896 329 -940 -112 -37 -395
131 -854 507 l-133 109 -61 135 c-86 186 -364 742 -497 992 -61 114 -111 210
-111 212 0 2 84 -58 188 -134 103 -75 286 -207 407 -292z m-5169 64 c-8 -21
-46 -128 -86 -238 -94 -260 -277 -811 -330 -995 -48 -165 -41 -154 -276 -401
-449 -471 -689 -609 -724 -418 -26 138 56 416 286 968 l39 93 175 156 c186
166 513 473 770 721 85 83 156 150 157 151 1 0 -4 -17 -11 -37z m4652 -456
c86 -82 254 -236 372 -342 l215 -193 39 -93 c187 -450 264 -678 285 -851 44
-346 -212 -240 -723 300 -239 253 -227 235 -280 417 -60 203 -232 719 -326
980 -40 110 -78 217 -86 239 -12 34 6 19 166 -135 100 -96 251 -241 338 -322z
m-4210 -4 c-68 -330 -140 -726 -183 -1003 l-36 -234 -91 -136 c-350 -520 -615
-790 -714 -726 -13 9 -30 29 -38 45 -51 97 -18 393 89 821 81 320 67 289 210
456 157 183 472 576 664 827 79 103 145 187 146 187 1 0 -20 -107 -47 -237z
m3392 12 c195 -254 471 -597 635 -789 143 -167 129 -136 210 -456 107 -428
139 -724 89 -822 -42 -82 -104 -71 -242 42 -100 81 -319 356 -510 640 l-91
135 -36 234 c-43 282 -116 680 -183 1005 -29 136 -44 232 -37 225 7 -8 81
-104 165 -214z m-2846 -180 c-19 -318 -33 -647 -40 -985 l-7 -305 -92 -190
c-277 -566 -479 -827 -594 -765 -25 13 -58 93 -70 171 -24 147 -12 487 30 834
l21 170 83 130 c160 251 478 790 635 1078 23 43 43 77 45 75 1 -2 -4 -97 -11
-213z m2207 138 c164 -301 468 -817 632 -1075 l85 -133 16 -130 c8 -71 20
-170 26 -220 18 -142 24 -558 11 -644 -13 -85 -46 -168 -72 -181 -115 -62
-314 196 -595 767 l-94 192 0 128 c0 272 -39 1207 -56 1331 -3 23 -3 42 -1 42
3 0 24 -35 48 -77z m-1647 -243 c38 -452 85 -876 135 -1233 7 -54 4 -68 -69
-290 -214 -644 -379 -909 -496 -792 -89 89 -149 468 -155 976 l-2 165 90 205
c108 241 290 683 399 966 42 112 78 202 80 200 1 -1 9 -90 18 -197z m1161 -30
c149 -385 391 -964 455 -1091 21 -40 22 -56 21 -213 -3 -399 -47 -762 -110
-909 -54 -126 -135 -129 -225 -7 -95 129 -204 380 -324 750 -66 204 -69 218
-61 270 40 247 100 815 145 1358 3 41 7 72 9 70 2 -2 42 -104 90 -228z m-597
37 c53 -245 197 -815 267 -1062 64 -226 65 -229 54 -294 -77 -466 -149 -759
-226 -917 -39 -79 -99 -144 -133 -144 -34 0 -94 65 -133 144 -78 160 -136 397
-227 921 -11 58 -9 67 54 288 70 243 213 812 268 1064 18 84 35 153 38 153 3
0 20 -69 38 -153z"/>
</g>
</svg>
